<?xml version="1.0" encoding="utf-8"?>
<!-- Generator: Adobe Illustrator 23.0.2, SVG Export Plug-In . SVG Version: 6.00 Build 0)  -->
<svg version="1.1" id="圖層_1" xmlns="http://www.w3.org/2000/svg" xmlns:xlink="http://www.w3.org/1999/xlink" x="0px" y="0px"
	 viewBox="0 0 196.82 88.62" style="enable-background:new 0 0 196.82 88.62;" xml:space="preserve">
<style type="text/css">
	.st0{fill-rule:evenodd;clip-rule:evenodd;fill:#89647E;}
	.st1{fill:#040000;}
	.st2{fill:#221714;}
</style>
<g>
	<g>
		<g id="_x39_5x95mm.psd_2_">
			<g>
				<path class="st0" d="M16.38,53.58c-0.01,0.05,0,0.09,0.04,0.12c0.61,0.69,1.24,0.8,1.49,0.22c0.26-0.59,0.76-0.99,1.03-1.55
					c0.06-0.06,0.13-0.13,0.18-0.19c0.12-0.07,0.25-0.15,0.36-0.22c0.01,0.43,0.32,0.53,0.65,0.52c0.31-0.01,0.56-0.21,0.54-0.55
					c-0.05-0.82,0.53-1.29,0.98-1.84c0.22-0.23,0.1-0.56,0.19-0.82c0.33-0.02,0.41,0.44,0.76,0.38c0.7-0.41,0.76-0.59,0.44-1.33
					c-0.04-0.09-0.01-0.26,0.06-0.34c0.58-0.72,0.07-0.79-0.49-0.85c-0.01-0.13-0.03-0.26-0.04-0.39l0.07,0.03
					c0.28-0.01,0.72,0.35,0.75-0.27c0.02-0.5,0.13-1.04-0.26-1.47c-0.04-0.01-0.08-0.02-0.12-0.02c0-0.26-0.01-0.51-0.01-0.76
					c0.2-1.26-0.57-2.14-1.17-3.1c0.01-0.65-0.11-1.23-0.75-1.56c-0.54-0.22-0.53-0.79-0.77-1.19c-0.8-1.4-2.06-2.26-3.52-2.79
					c-0.67-0.24-1.48-0.13-1.96-0.82c0.08-0.53-0.18-0.91-0.68-0.95c-0.41-0.04-0.46,0.34-0.41,0.69c-0.06,0.33-0.95,0.19-0.46,0.82
					c0.13,0.26,0.27,0.52,0.41,0.78c0.01,0.32-0.06,0.59-0.38,0.75c-0.33-0.51-0.71-0.34-1.14-0.12c-0.41,0.21-0.25,0.43-0.07,0.67
					c-0.4,0.38-0.49-0.12-0.71-0.25c-0.27-0.16-0.52-0.66-0.85-0.31c-0.38,0.42,0.13,0.61,0.41,0.83c0,0.11-0.01,0.23-0.01,0.34
					c-0.06-0.02-0.1-0.01-0.15,0.02c-1.46-0.89-2.86-0.35-4.26,0.18c-0.22,0.31-0.3,0.97-0.88,0.31c-0.14-0.15-0.36-0.02-0.48,0.15
					c-0.15,0.23-0.09,0.42,0.15,0.54c0.1,0.13,0.2,0.25,0.29,0.37c-0.2,0.09-0.25,0.36-0.51,0.4c-0.82,0.13-0.5,0.44-0.11,0.75
					c-0.01,0.06-0.02,0.11-0.02,0.17c-0.29,0.02-0.57,0.04-0.86,0.05C3.72,41,3.46,41.24,3.53,41.59c0.08,0.45,0.42,0.34,0.75,0.21
					c0.34-0.13,0.7-0.39,1.06-0.03c-0.02,0.05-0.02,0.1,0.02,0.15c-0.18,0.39-0.46,0.59-0.9,0.55c-0.63-0.05-1.12,0.11-1.05,0.86
					c0.07,0.72,0.54,0.86,1.17,0.69c0.06,0.06,0.11,0.11,0.17,0.17c-0.3,0.27-0.62,0.58-0.22,0.94c0.37,0.33,0.6-0.08,0.83-0.31
					c0.26,0.06,0.52,0.13,0.78,0.19c0.36,0.41,0.17,0.89,0.17,1.35c-0.08,0.06-0.15,0.11-0.23,0.17c-0.17,0.14-0.34,0.29-0.51,0.42
					c-0.34,0.05-0.83-0.24-0.98,0.3C4.45,47.78,4.68,48.57,5,48.6c0.57,0.05,0.77,1.26,1.52,0.46c0.22-0.04,0.43-0.08,0.66-0.12
					c-0.29,1.05-0.23,1.13,0.65,0.92c0.27,0.18,0.54,0.37,0.82,0.55c0.07,0.06,0.14,0.12,0.21,0.19c0.3,0.36,0.82,0.08,1.14,0.4
					c0.04,0.12,0.08,0.23,0.12,0.35c-0.11,0.77-0.34,1.48-0.91,2.05c-0.17,0.16-0.29,0.4-0.08,0.59c0.25,0.22,0.39-0.04,0.53-0.21
					c0.24-0.3,0.47-0.61,0.69-0.91c0.36-0.5,0.78-0.52,1.33-0.28c0.63,0.29,0.22,0.69,0.23,1.06c-0.38,0.72-0.75,1.45-1.13,2.17
					c-0.26,0.22-0.29,0.65-0.04,0.67c0.41,0.03,0.89-0.15,0.97-0.72c0.27-0.69,0.53-1.39,0.8-2.08c0.07-0.05,0.13-0.11,0.19-0.16
					c0.52-0.02,1.06-0.06,0.95,0.74c-0.21,0.28-0.32,0.57,0.03,0.81c0.4,0.28,0.71,0.11,0.96-0.25c0.61-0.21,0.99-0.67,1.34-1.19
					C16.13,53.63,16.26,53.6,16.38,53.58z"/>
				<path class="st0" d="M21.08,39.57c0.63,0.33,0.76,0.92,0.75,1.56c-0.33,0.14,0.09,0.66-0.31,0.7c-0.88,0.1-1.18,0.42-0.59,1.22
					c0.06,0.09-0.06,0.31-0.06,0.47c0,0.22-0.07,0.39,0.35,0.31c0.41-0.08,0.85-0.01,1.27-0.27c-0.15,0.22-0.31,0.44-0.46,0.65
					c-0.71-0.19-0.88,0.15-0.78,0.77c-0.66,0-1.07,0.29-1.15,0.97c0,0.06,0,0.13,0,0.19c-0.76,0.48-0.79-0.03-0.77-0.58
					c0.9-0.04,0.67-1.09,1.37-1.46c-0.8,0.17-0.81-0.21-0.71-0.71c0.05-0.23,0.03-0.49-0.29-0.47c-0.27,0.02-0.38,0.22-0.28,0.49
					c0.23,0.67-0.07,1.31-0.09,1.96c-0.06-0.07-0.13-0.13-0.19-0.19c-0.06-0.24,0.16-0.66-0.26-0.66c-0.34,0-0.31,0.39-0.32,0.67
					c0,0.06,0,0.12,0,0.18c-0.5,0.11-0.7-0.29-0.97-0.57c-0.02-0.32,0.65-0.5,0.25-0.82c-0.93-0.74-0.46-1.04,0.33-1.31
					c0.03,0.2,0.08,0.39,0.33,0.35c0.06-0.01,0.16-0.14,0.15-0.17c-0.09-0.23-0.31-0.15-0.48-0.17c0.32-0.32,0.71-0.2,1.07-0.13
					c0.19,0.04,0.5,0.07,0.41-0.14c-0.16-0.39-0.12-0.97-0.71-1.09c-0.39,0-0.77,0-1.16,0c0.21-0.35,0.75-0.09,0.96-0.65
					c0.14-0.38,1.05,0.29,1.17,1.04c0.03,0.18-0.11,0.5,0.28,0.44c0.05-0.01,0.07-0.17,0.1-0.25c0.44-0.17,0.46-0.6,0.58-0.96
					c0.42-0.47,0.43-0.87-0.19-1.17C20.75,39.61,20.92,39.6,21.08,39.57z M18.32,43.89c0.17,0.01,0.21-0.1,0.21-0.23
					c-0.01-0.21-0.09-0.37-0.33-0.38c-0.17-0.01-0.34,0.01-0.28,0.25C17.98,43.73,18.13,43.83,18.32,43.89z"/>
				<path class="st0" d="M14.84,34.77c0.48,0.69,1.28,0.58,1.96,0.82c1.46,0.53,2.72,1.39,3.52,2.79c-0.05,0.16-0.04,0.34-0.22,0.42
					c-0.07-0.06-0.14-0.12-0.21-0.18c-0.07-0.19-0.2-0.31-0.39-0.39c0-0.06,0-0.12-0.02-0.18c-0.59-0.25-1.11-0.53-1.45-1.15
					c-0.31-0.58-0.96-0.77-1.62-0.79c-0.13,0-0.27,0-0.4-0.01c-0.24-0.08-0.51-0.36-0.71-0.01c-0.15,0.26,0.08,0.38,0.32,0.4
					c-0.69,0.52-1.34,0.39-1.94-0.39c-0.14-0.26-0.27-0.52-0.41-0.78c0.19-0.63,0.39-0.24,0.57,0c0.27,0.35,0.54,0.7,0.81,0
					C14.69,35.13,14.63,34.91,14.84,34.77z"/>
				<path class="st0" d="M13.7,36.11c0.6,0.78,1.26,0.91,1.94,0.39c0.08-0.17,0.48-0.03,0.39-0.39c0.13,0,0.26,0.01,0.4,0.01
					c0.23,0.49,1.35,0.88,0.19,1.54c-0.81-1.01-1.48-0.18-1.95,0.31c-0.24,0.25-1.27-0.05-0.76,0.85c-0.32,0.13-0.64,0.26-0.96,0.39
					c-0.16-0.01-0.31-0.04-0.38-0.19c0.67-0.26,0.82-0.95,1.17-1.47c0.15-0.22-0.05-0.25-0.21-0.27c-0.07-0.13-0.13-0.27-0.19-0.41
					C13.64,36.7,13.7,36.43,13.7,36.11z"/>
				<path class="st0" d="M22.02,44.22c0.15-0.22,0.31-0.44,0.46-0.65c-0.42,0.25-0.85,0.19-1.27,0.27s-0.35-0.09-0.35-0.31
					c0-0.16,0.13-0.37,0.06-0.47c-0.59-0.81-0.28-1.12,0.59-1.22c0.39-0.05-0.02-0.56,0.31-0.7c0.6,0.96,1.38,1.84,1.17,3.1
					C22.67,44.42,22.34,44.46,22.02,44.22z"/>
				<path class="st0" d="M5.6,46.94c0.17-0.14,0.34-0.28,0.51-0.42c0.34,0.52,0.54,1.21,1.4,0.99c-0.5,0.57-0.16,0.81,0.39,0.97
					c0.05,0.33-0.12,0.69,0.19,0.97c0,0.18-0.06,0.33-0.23,0.41C6.98,50.08,6.92,50,7.21,48.94c-0.23,0.04-0.45,0.08-0.66,0.12
					c-0.5-0.16-0.7-0.52-0.88-1.01C5.5,47.54,5.35,47.16,5.6,46.94z M6.37,48c0.15,0.4,0.32,0.53,0.64,0.4
					C6.91,48.1,6.7,48.07,6.37,48z"/>
				<path class="st0" d="M19.49,51.96c-0.12,0.07-0.24,0.15-0.36,0.22c-0.04-0.14-0.02-0.35-0.23-0.32
					c-0.07,0.01-0.11,0.19-0.16,0.29l0,0c-0.44-0.11-0.31-0.94-0.97-0.78c0.13-0.19,0.27-0.38,0.4-0.58
					c0.42-0.14,0.89,0.27,1.4-0.16c-0.31-0.17-0.68-0.12-0.82-0.42c-0.05-0.19-0.31-0.39,0.01-0.58c0.07,0.18,0.2,0.31,0.38,0.39
					c0.5,0.36,0.77,0.26,0.78-0.39l0,0c0.24,0.55,0.71,0.42,1.15,0.4c0,0.53-0.83,0.43-0.75,0.97C20.4,51.68,19.9,51.77,19.49,51.96
					z"/>
				<path class="st0" d="M13.68,54.27c0.11-0.8-0.43-0.76-0.95-0.74c0.01-0.07,0.01-0.14,0.01-0.22c0.53-0.41-0.07-0.41-0.21-0.58
					c-0.13-0.19-0.25-0.39-0.38-0.59c-0.22-0.4,0.04-0.6,0.35-0.73c0.22-0.09,0.42-0.15,0.43-0.43c0.07-0.06,0.13-0.13,0.19-0.2l0,0
					c0.25,0,0.51,0.01,0.76,0.01c0.06,0.07,0.13,0.12,0.19,0.19c0.06,0.81,0.49,0.65,0.97,0.39l0,0c0.19,0.07,0.53-0.32,0.59,0.19
					c-0.39,0.15-0.83,0.11-1.16,0.39c-0.13,0-0.26-0.01-0.38-0.01c-0.16-0.26-0.37-0.51-0.64-0.17c-0.23,0.28,0.02,0.45,0.25,0.57
					l0,0c-0.06,0.13-0.12,0.26-0.19,0.39c-0.2,0.55,0.63,0.5,0.57,0.97C13.95,53.9,13.82,54.08,13.68,54.27z M12.86,51.89
					c-0.04-0.13-0.12-0.22-0.27-0.19c-0.13,0.04-0.21,0.15-0.16,0.28c0.02,0.07,0.13,0.13,0.21,0.14
					C12.78,52.13,12.87,52.05,12.86,51.89z"/>
				<path class="st0" d="M6.55,38.22c1.4-0.53,2.8-1.07,4.26-0.18c-0.06,0.19,0.6,0.39,0,0.59c-0.62-0.72-1.17-0.39-1.61,0.18
					c-0.41,0.54-0.72,0.35-0.87-0.11c-0.18-0.55-0.42-0.56-0.82-0.28c-0.33-0.01-0.62,0.06-0.77,0.39
					C6.52,38.67,6.57,38.43,6.55,38.22z"/>
				<path class="st0" d="M12.74,53.31c0,0.08-0.01,0.14-0.01,0.22c-0.06,0.06-0.13,0.11-0.19,0.16c-0.18-0.26-0.45,0.66-0.6-0.04
					c-0.01-0.37,0.4-0.77-0.23-1.06c-0.55-0.24-0.97-0.23-1.33,0.28c-0.22,0.31-0.45,0.61-0.69,0.91c-0.14,0.17-0.29,0.43-0.53,0.21
					c-0.21-0.19-0.09-0.43,0.08-0.59c0.57-0.57,0.8-1.28,0.91-2.05c0.22-0.05,0.43-0.1,0.65-0.15c-0.07,0.19-0.3,0.38,0,0.57
					c0.14,0.22,0.37,0.18,0.59,0.18c0.06,0,0.13,0.01,0.19,0.01c0.14,0.22,0.37,0.18,0.58,0.19c0.13,0.19,0.25,0.39,0.38,0.59
					C12.61,52.93,12.68,53.13,12.74,53.31z"/>
				<path class="st0" d="M11.58,51.96c-0.06,0-0.13,0-0.19-0.01c-0.05-0.19,0.09-0.41-0.11-0.59c-0.12,0.19-0.19,0.42-0.47,0.41
					c-0.31-0.19-0.07-0.38,0-0.57c-0.13-0.13-0.25-0.27-0.38-0.4c0.2-0.01,0.41-0.04,0.45-0.27c0.03-0.15-0.09-0.24-0.22-0.27
					c-0.3-0.08-0.41,0.09-0.44,0.35c-0.15,0.09-0.18,0.23-0.18,0.39c-0.31-0.31-0.84-0.04-1.14-0.4c0.49,0.08,0.9-0.09,1.14-0.51
					c0.2-0.35-0.39-0.35-0.39-0.64c0.2-0.19,0.39-0.39,0.58-0.58h0.1h0.09c0.33,0.1,0.02,1.05,0.78,0.58
					c0.02,0.42,0.03,0.86,0.58,0.96C11.44,50.9,12.02,51.49,11.58,51.96z"/>
				<path class="st0" d="M5.64,39.6c-0.1-0.13-0.2-0.25-0.29-0.37c0.34-0.12,0.68,0.2,1.02-0.02c0.69-0.05,1.51-0.22,0.97,0.96
					c-0.21,0.01-0.44-0.03-0.58,0.2c-0.36,0.26-0.31,0.51,0,0.77c0.3,0.25,0.37,0.51-0.01,0.76c-0.02-0.5-0.42-0.83-0.71-1.1
					c-0.34-0.3-0.16,0.21-0.25,0.33c-0.27-0.03-0.59,0.09-0.78-0.22c0-0.06,0.01-0.12,0.02-0.17C5.79,40.23,5.91,39.99,5.64,39.6z"
					/>
				<path class="st0" d="M6.34,46.35C6.33,45.9,6.52,45.41,6.17,45c0.01-0.38,0.22-0.56,0.58-0.6c0.17-0.07,0.19-0.21,0.19-0.36
					c0.13,0.19,0.26,0.38,0.39,0.57c-0.18,0.02-0.4-0.06-0.48,0.17C6.83,44.82,6.94,44.95,7,44.96c0.26,0.04,0.3-0.15,0.33-0.35
					C7.52,44.74,7.71,44.87,7.9,45c0,0.06,0,0.13,0.01,0.19c-0.07,0.29,0.33,0.47,0.2,0.78c-0.22,0.52-0.83,0.44-1.18,0.76
					c-0.49-0.23,0.3-0.8-0.29-1.03C6.5,45.9,6.62,46.23,6.34,46.35z"/>
				<path class="st0" d="M10.81,38.63c0.6-0.2-0.06-0.4,0-0.59c0.05-0.03,0.1-0.03,0.15-0.01c0.2,0.03,0.3,0.16,0.44,0.29
					c0.3,0.28,0.7,0.49,0.56-0.27c0.28-0.01,0.48-0.13,0.59-0.39c0.23-0.35,0.56-0.44,0.95-0.4c0.15,0.03,0.35,0.05,0.21,0.27
					c-0.35,0.52-0.49,1.21-1.17,1.47C11.93,39.06,11.32,39.07,10.81,38.63z"/>
				<path class="st0" d="M4.61,44.02c-0.63,0.17-1.11,0.03-1.17-0.69c-0.07-0.75,0.42-0.91,1.05-0.86c0.44,0.04,0.73-0.16,0.9-0.55
					c0.26-0.27,0.52-0.4,0.78,0c-0.22,0.14-0.18,0.37-0.19,0.58C5.49,42.69,5,42.88,4.5,43.07c-0.15,0.06-0.44-0.01-0.31,0.29
					c0.04,0.08,0.28,0.07,0.43,0.1c0.07,0.07,0.13,0.14,0.2,0.2C4.65,43.72,4.63,43.87,4.61,44.02z"/>
				<path class="st0" d="M19.49,51.96c0.41-0.19,0.91-0.28,0.8-0.95c-0.08-0.54,0.75-0.44,0.75-0.97c0.01-0.16-0.02-0.31-0.18-0.4
					c0.06-0.06,0.13-0.13,0.19-0.19c0.29-0.28,0.58-0.56,0.58,0.17c0,0.16,0.01,0.32,0.03,0.48c-0.45,0.55-1.03,1.02-0.98,1.84
					c0.02,0.34-0.23,0.54-0.54,0.55C19.81,52.49,19.5,52.39,19.49,51.96z"/>
				<path class="st0" d="M6.34,46.35c0.28-0.12,0.16-0.45,0.3-0.65c0.59,0.23-0.2,0.81,0.29,1.03c0.56-0.04,1.12-0.1,1.36,0.59
					c-0.13,0.13-0.26,0.27-0.38,0.4c-0.08-0.16-0.23-0.2-0.4-0.2c-0.86,0.22-1.06-0.48-1.4-0.99C6.19,46.46,6.27,46.4,6.34,46.35z"
					/>
				<path class="st0" d="M5.6,46.94c-0.25,0.21-0.1,0.59,0.07,1.1c0.17,0.49,0.38,0.85,0.88,1.01c-0.74,0.79-0.94-0.41-1.52-0.46
					c-0.32-0.03-0.56-0.83-0.41-1.35C4.77,46.71,5.26,47,5.6,46.94z"/>
				<path class="st0" d="M11.94,53.65c0.14,0.71,0.42-0.21,0.6,0.04c-0.27,0.7-0.53,1.39-0.8,2.08c-0.29,0.38-0.6,0.29-0.93,0.05
					C11.19,55.1,11.57,54.37,11.94,53.65z"/>
				<path class="st0" d="M23.01,44.99c0.04,0.01,0.08,0.01,0.12,0.02c0.13,0.67-0.09,1.23-0.49,1.75l-0.07-0.03
					c-0.25,0.13-0.51,0.26-0.76,0.39c-0.19-0.06-0.39-0.13-0.58-0.19c-0.06-0.06-0.12-0.13-0.19-0.19c0.46,0.04,0.76-0.19,0.96-0.59
					c0.13-0.25,0.33-0.45,0.58-0.58c0.23-0.14,0.18-0.37,0.19-0.58C22.86,45,22.93,44.99,23.01,44.99z"/>
				<path class="st0" d="M18.95,52.37c-0.28,0.56-0.77,0.96-1.03,1.55c-0.25,0.58-0.88,0.46-1.49-0.22c0.21-0.01,0.44,0.03,0.57-0.2
					c0.65-0.36,1.47-0.49,1.74-1.34l0,0C18.8,52.23,18.87,52.3,18.95,52.37z"/>
				<path class="st0" d="M20.1,38.8c0.18-0.09,0.17-0.27,0.22-0.42c0.24,0.4,0.23,0.97,0.77,1.19c-0.16,0.03-0.33,0.04-0.41,0.21
					c-0.83,0.79-1.26,0.79-1.94,0.01c0.37-0.07,0.74-0.13,1.11-0.21c0.34-0.07,0.39-0.27,0.24-0.56
					C20.09,38.94,20.09,38.87,20.1,38.8z"/>
				<path class="st0" d="M5,40.92c0.2,0.31,0.51,0.19,0.78,0.22c-0.14,0.2-0.42,0.32-0.41,0.62c-0.36-0.36-0.72-0.1-1.06,0.03
					c-0.34,0.13-0.68,0.24-0.75-0.21c-0.06-0.35,0.19-0.59,0.58-0.61C4.43,40.96,4.71,40.93,5,40.92z"/>
				<path class="st0" d="M22.62,47.12c0.55,0.06,1.07,0.13,0.49,0.85c-0.07,0.08-0.1,0.25-0.06,0.34c0.31,0.74,0.26,0.93-0.44,1.33
					c0.17-0.26,0.01-0.52-0.01-0.78c0.4-0.52,0.06-1.03-0.03-1.54C22.59,47.25,22.6,47.19,22.62,47.12z"/>
				<path class="st0" d="M12.56,37.66c-0.12,0.25-0.31,0.38-0.59,0.39c-0.39,0.04-0.58-0.47-1-0.37c-0.28-0.22-0.79-0.41-0.41-0.83
					c0.32-0.35,0.58,0.15,0.85,0.31c0.22,0.13,0.31,0.63,0.71,0.25C12.2,37.59,12.37,37.65,12.56,37.66z"/>
				<path class="st0" d="M12.56,37.66c-0.19-0.01-0.35-0.07-0.44-0.25c-0.18-0.24-0.35-0.46,0.06-0.67
					c0.43-0.22,0.81-0.38,1.14,0.12c0.06,0.14,0.13,0.27,0.19,0.41C13.12,37.22,12.78,37.31,12.56,37.66z"/>
				<path class="st0" d="M21.66,50.09c-0.01-0.16-0.03-0.32-0.03-0.48c0-0.73-0.29-0.44-0.58-0.17c-0.06-0.13-0.13-0.26-0.19-0.39
					c0.25-0.1,0.39-0.29,0.38-0.57c0.41-0.17,0.4-0.45,0.2-0.78c0.2-0.06,0.39-0.13,0.58-0.19c0,0.39,0,0.77,0,1.16
					c-0.17,0.09-0.19,0.25-0.18,0.42c0.01,0.06,0.01,0.12,0.02,0.17C21.76,49.54,21.88,49.86,21.66,50.09z"/>
				<path class="st0" d="M6.75,44.4c-0.36,0.04-0.57,0.22-0.58,0.6c-0.26-0.06-0.52-0.12-0.78-0.19c0-0.13,0-0.26,0-0.39
					C5.86,43.58,6.13,43.57,6.75,44.4z"/>
				<path class="st0" d="M14.84,34.77c-0.21,0.15-0.15,0.37-0.16,0.57c-0.31-0.27-0.62-0.55-0.92-0.83c-0.05-0.35,0-0.73,0.41-0.69
					C14.65,33.86,14.92,34.23,14.84,34.77z"/>
				<path class="st0" d="M9.65,49.45c0,0.3,0.59,0.29,0.39,0.64c-0.23,0.42-0.65,0.58-1.14,0.51c-0.07-0.06-0.15-0.12-0.21-0.19
					c0.19-0.13,0.38-0.26,0.58-0.39c-0.01-0.12-0.01-0.24-0.01-0.36C9.24,49.33,9.41,49.33,9.65,49.45z"/>
				<path class="st0" d="M16,53.66c-0.34,0.51-0.73,0.98-1.34,1.19c-0.07-0.06-0.13-0.12-0.2-0.18c0.5-0.33,0.95-0.68,0.41-1.34
					c0.06-0.01,0.12-0.01,0.18-0.02C15.37,53.42,15.68,53.54,16,53.66z"/>
				<path class="st0" d="M6.36,39.2c-0.33,0.22-0.68-0.09-1.02,0.02c-0.25-0.12-0.31-0.31-0.15-0.54c0.12-0.18,0.34-0.31,0.48-0.15
					c0.58,0.66,0.66,0,0.88-0.31c0.02,0.21-0.03,0.45,0.19,0.59C6.68,39.01,6.54,39.12,6.36,39.2z"/>
				<path class="st0" d="M23.01,44.99c-0.08,0-0.15,0.01-0.22,0.01c-0.28-0.35-0.49-0.35-0.77-0.01V45c-0.2,0.06-0.39-0.6-0.59,0
					c-0.06,0-0.13-0.01-0.19-0.01c-0.1-0.62,0.07-0.97,0.78-0.77c0.32,0.24,0.65,0.2,0.98,0.01C23,44.48,23.01,44.74,23.01,44.99z"
					/>
				<path class="st0" d="M5.37,41.76c-0.02-0.31,0.27-0.42,0.41-0.62c0.09-0.13-0.09-0.63,0.25-0.33c0.29,0.26,0.69,0.59,0.71,1.1
					c-0.19,0-0.38,0-0.57,0.01c-0.26-0.39-0.52-0.27-0.78,0C5.35,41.86,5.35,41.81,5.37,41.76z"/>
				<path class="st0" d="M14.47,54.66c0.06,0.06,0.13,0.13,0.2,0.18c-0.25,0.35-0.55,0.53-0.96,0.25c-0.35-0.24-0.24-0.54-0.03-0.81
					c0.13-0.19,0.27-0.38,0.4-0.57V53.7c-0.02,0.21,0.18,0.4,0.04,0.63C13.81,54.87,14.33,54.58,14.47,54.66z"/>
				<path class="st0" d="M13.75,34.51c0.31,0.28,0.61,0.55,0.92,0.83c-0.27,0.71-0.54,0.35-0.81,0c-0.19-0.24-0.38-0.64-0.57,0
					C12.79,34.7,13.69,34.84,13.75,34.51z"/>
				<path class="st0" d="M5.39,44.42c0,0.13,0,0.26,0,0.39c-0.23,0.23-0.46,0.64-0.83,0.31c-0.4-0.36-0.08-0.67,0.22-0.94
					c0.13,0,0.27,0,0.41,0C5.26,44.27,5.32,44.35,5.39,44.42z"/>
				<path class="st0" d="M5.64,39.6c0.28,0.4,0.15,0.63-0.62,1.15c-0.4-0.31-0.71-0.63,0.11-0.75C5.39,39.96,5.44,39.69,5.64,39.6z"
					/>
				<path class="st0" d="M22.64,46.76c0.4-0.51,0.62-1.08,0.49-1.75c0.4,0.44,0.28,0.97,0.26,1.47
					C23.37,47.11,22.93,46.75,22.64,46.76z"/>
				<path class="st0" d="M16.99,53.5c-0.13,0.23-0.35,0.19-0.56,0.2c-0.04-0.03-0.05-0.07-0.04-0.12c-0.05-0.15-0.11-0.3-0.16-0.45
					c0.01-0.16,0.02-0.32,0.19-0.39C17.16,52.56,16.69,53.32,16.99,53.5z"/>
				<path class="st0" d="M10.81,55.82c0.32,0.24,0.64,0.32,0.93-0.04c-0.08,0.57-0.56,0.74-0.97,0.72
					C10.52,56.47,10.56,56.05,10.81,55.82z"/>
				<path class="st0" d="M10.97,37.68c0.42-0.11,0.61,0.4,1,0.37c0.14,0.75-0.27,0.54-0.56,0.27c-0.14-0.13-0.24-0.26-0.44-0.29
					C10.96,37.91,10.96,37.79,10.97,37.68z"/>
				<path class="st0" d="M22.01,48.68c0-0.39,0-0.78,0-1.16c0-0.16-0.03-0.31-0.19-0.38l-0.01-0.01c0.25-0.13,0.51-0.26,0.76-0.39
					c0.01,0.13,0.03,0.26,0.04,0.39c-0.02,0.06-0.03,0.13-0.05,0.19c-0.32-0.14-0.35,0.03-0.37,0.29
					C22.18,47.97,22.35,48.37,22.01,48.68z"/>
				<path class="st0" d="M16.22,53.12c0.06,0.15,0.11,0.3,0.16,0.45c-0.13,0.03-0.25,0.06-0.38,0.08c-0.32-0.12-0.63-0.23-0.95-0.35
					c0.08-0.4,0.29-0.49,0.57-0.19C15.84,53.36,16.02,53.19,16.22,53.12z"/>
				<path class="st0" d="M9.26,50.02c-0.19,0.13-0.39,0.26-0.58,0.39c-0.27-0.18-0.55-0.37-0.82-0.55c0.17-0.08,0.23-0.23,0.23-0.41
					H8.1C8.41,49.78,8.74,50.09,9.26,50.02z"/>
				<path class="st0" d="M21.85,49.27c-0.01-0.06-0.01-0.11-0.02-0.17c0.28,0,0.53-0.08,0.76-0.24c0.02,0.26,0.18,0.52,0.01,0.78
					C22.26,49.71,22.18,49.25,21.85,49.27z"/>
				<path class="st0" d="M5.19,44.19c-0.14,0-0.27,0-0.41,0c-0.06-0.06-0.11-0.11-0.17-0.17c0.02-0.14,0.04-0.29,0.21-0.37
					C5.14,43.69,5.44,43.75,5.19,44.19z"/>
				<path class="st0" d="M10.03,50.99c0.01-0.15,0.03-0.3,0.18-0.39c0.07,0.06,0.14,0.13,0.2,0.19c0.13,0.13,0.26,0.27,0.38,0.4
					c-0.22,0.05-0.43,0.1-0.65,0.15C10.11,51.23,10.07,51.12,10.03,50.99z"/>
				<path class="st0" d="M18.95,52.37c-0.07-0.07-0.14-0.14-0.21-0.22c0.06-0.1,0.1-0.28,0.16-0.29c0.22-0.03,0.2,0.17,0.23,0.32
					C19.07,52.24,19,52.31,18.95,52.37z"/>
				<path class="st0" d="M18.92,41.33c0.59,0.12,0.55,0.7,0.71,1.09c0.09,0.21-0.23,0.18-0.41,0.14c-0.36-0.07-0.75-0.2-1.07,0.13
					l0,0c-0.78,0.26-1.26,0.57-0.33,1.31c0.4,0.32-0.27,0.51-0.25,0.82c-0.08,0.15-0.23,0.19-0.39,0.19
					c-0.44,0.17-0.38,0.75-0.78,0.97c-0.06,0.06-0.13,0.13-0.19,0.19c-0.83,0.2-1.27-0.56-1.93-0.78c-0.06-0.19,0.31-0.53-0.19-0.58
					c-0.13-0.71,0.24-1.42,0-2.13c0.16-0.08,0.19-0.23,0.2-0.39c0.06,0,0.13,0,0.19,0c-0.24,1.22,1.03,1.63,1.32,2.59
					c0.15-0.55-0.39-1.4,0.76-1.35c-0.19-0.36-0.59-0.46-0.54-0.85c0.06,0,0.13,0,0.19,0.01c0.76,1.03,1.04-0.28,1.58-0.38
					c0.66-0.12-0.16-0.5-0.03-0.79l0,0C18.18,41.6,18.59,41.69,18.92,41.33z"/>
				<path class="st0" d="M18.73,39.79c0.68,0.78,1.11,0.78,1.94-0.01c0.62,0.3,0.6,0.7,0.19,1.17c-0.18-0.08-0.26-0.4-0.55-0.19
					c-0.21,0.15-0.13,0.3-0.09,0.49c0.05,0.21,0.04,0.44,0.06,0.66c-0.03,0.08-0.06,0.24-0.1,0.25c-0.39,0.06-0.25-0.26-0.28-0.44
					c-0.12-0.75-1.03-1.41-1.17-1.04c-0.21,0.56-0.75,0.3-0.96,0.65c0,0.06-0.01,0.13,0,0.19l0,0c-0.06,0.06-0.13,0.13-0.19,0.19
					c-0.21-0.42-0.87,0.31-0.97-0.39c0.34-0.45,1.38-0.38,0.97-1.35c0.08-0.15,0.22-0.19,0.39-0.2c0.19,0.4,0.39,0.48,0.58,0
					C18.6,39.78,18.66,39.78,18.73,39.79z"/>
				<path class="st0" d="M21.05,46.74c0.06,0.06,0.12,0.13,0.19,0.19c-0.33,0.71-0.59-0.16-0.9-0.04c-0.08,0.34-0.17,0.67-0.25,1.01
					c-0.06,0-0.12,0-0.18-0.01c-0.03-0.3,0.07-0.66-0.33-0.79c-0.35-0.11-0.37,0.37-0.65,0.42c-0.2,0.02-0.39,0.74-0.59,0
					c0.54-0.46,0.59-1.13,0.78-1.75c0.06-0.07,0.13-0.13,0.19-0.19l0,0c-0.01,0.55,0.02,1.06,0.77,0.58
					c0.31,0.15,0.77-0.03,0.97,0.39C21.05,46.61,21.05,46.68,21.05,46.74z"/>
				<path class="st0" d="M21.05,46.55c-0.2-0.43-0.65-0.24-0.97-0.39c0-0.06,0-0.13,0-0.19c0.47-0.79,1.3-0.37,1.93-0.58
					c0.15,0.17,0.58-0.45,0.58,0.19c-0.26,0.13-0.45,0.33-0.58,0.58C21.7,46.29,21.37,46.42,21.05,46.55z"/>
				<path class="st0" d="M19.31,45.39c0.02-0.65,0.32-1.29,0.09-1.96c-0.09-0.26,0.01-0.47,0.28-0.49c0.32-0.03,0.33,0.24,0.29,0.47
					c-0.1,0.5-0.08,0.88,0.71,0.71c-0.7,0.36-0.47,1.41-1.37,1.46l0,0C19.31,45.52,19.31,45.45,19.31,45.39z"/>
				<path class="st0" d="M19.31,45.39c0,0.06,0,0.13,0,0.19c-0.06,0.07-0.13,0.13-0.19,0.19c-0.27-0.09-0.57-0.39-0.77,0.09
					c-0.07,0.15-0.23,0.33-0.31,0.13c-0.29-0.76-0.57,0.11-0.85-0.02l0,0c-0.27-0.32-0.03-0.65,0-0.97c0.16-0.01,0.3-0.04,0.39-0.19
					c0.27,0.28,0.47,0.68,0.97,0.57c0.19-0.06,0.39-0.13,0.58-0.19C19.18,45.26,19.25,45.32,19.31,45.39z"/>
				<path class="st0" d="M22.02,45.38c-0.64,0.22-1.47-0.2-1.93,0.58c0.08-0.68,0.49-0.98,1.15-0.97c0.06,0,0.13,0.01,0.19,0.01
					c0.19,0.06,0.39,0.13,0.59,0.19C22.02,45.26,22.02,45.32,22.02,45.38z"/>
				<path class="st0" d="M20.28,41.91c-0.02-0.22-0.01-0.45-0.06-0.66c-0.05-0.19-0.13-0.35,0.09-0.49
					c0.29-0.21,0.38,0.11,0.55,0.19C20.74,41.31,20.72,41.73,20.28,41.91z"/>
				<path class="st0" d="M19.12,45.19c-0.19,0.06-0.38,0.13-0.58,0.19c0-0.06,0-0.12,0-0.18c0.01-0.28-0.02-0.67,0.32-0.67
					C19.28,44.53,19.05,44.96,19.12,45.19z"/>
				<path class="st0" d="M18.32,43.89c-0.19-0.06-0.34-0.17-0.39-0.37c-0.06-0.24,0.1-0.25,0.28-0.25c0.24,0.01,0.32,0.17,0.33,0.38
					C18.53,43.79,18.49,43.9,18.32,43.89z"/>
				<path class="st0" d="M17.77,41.52c-0.01-0.06,0-0.13,0-0.19c0.39,0,0.77,0,1.16,0C18.59,41.69,18.18,41.6,17.77,41.52z"/>
				<path class="st0" d="M18.15,42.68c0.17,0.03,0.39-0.06,0.48,0.17c0.01,0.04-0.09,0.16-0.15,0.17
					C18.22,43.07,18.18,42.88,18.15,42.68L18.15,42.68z"/>
				<path class="st0" d="M16.61,37.66c1.16-0.67,0.04-1.05-0.19-1.54c0.66,0.02,1.3,0.21,1.62,0.79c0.34,0.62,0.86,0.9,1.45,1.15
					c-0.24,0-0.49,0-0.74,0c-0.33,0.03-0.64-0.8-0.98-0.02c-0.17,0.05-0.5-0.16-0.49,0c0.02,0.41,0.09,0.63-0.49,0.51
					c-0.71-0.14,0.22-0.57-0.18-0.71C16.6,37.79,16.6,37.72,16.61,37.66z"/>
				<path class="st0" d="M17.77,38.04c0.34-0.79,0.65,0.04,0.98,0.02c0,0.18-0.05,0.4,0.15,0.5c0.33,0.16,0.4-0.21,0.6-0.32
					c0.18,0.08,0.31,0.2,0.39,0.39c-0.35,0.07-0.63,0.28-0.37,0.61c0.25,0.33,0.36-0.17,0.56-0.23c0.15,0.29,0.09,0.49-0.24,0.56
					c-0.37,0.08-0.74,0.14-1.11,0.21c-0.06,0-0.12-0.01-0.19-0.01c0.13-0.38,0.13-0.77,0-1.16c-0.04-0.25-0.08-0.48-0.39-0.19
					C18.02,38.3,17.9,38.17,17.77,38.04L17.77,38.04z"/>
				<path class="st0" d="M20.09,39.01c-0.2,0.06-0.31,0.55-0.56,0.23c-0.26-0.34,0.01-0.54,0.37-0.61c0.07,0.06,0.14,0.12,0.21,0.18
					C20.09,38.87,20.09,38.94,20.09,39.01z"/>
				<path class="st0" d="M16.02,36.11c0.1,0.35-0.3,0.22-0.39,0.39c-0.24-0.03-0.47-0.15-0.32-0.4
					C15.51,35.75,15.79,36.03,16.02,36.11z"/>
				<path class="st0" d="M19.5,38.24c-0.2,0.11-0.28,0.48-0.6,0.32c-0.21-0.1-0.15-0.32-0.15-0.5c0.25,0,0.5,0,0.74,0
					C19.5,38.12,19.51,38.17,19.5,38.24z"/>
				<path class="st0" d="M17.57,39.98c0.41,0.97-0.63,0.9-0.97,1.35c-0.78,0.14-1.45,0.76-2.32,0.58c0.63-0.43,0.73-1.13,0.63-1.74
					c-0.06-0.38-0.66-0.13-1.02-0.19l0,0c-0.2-0.4-0.5-0.62-0.96-0.58c0-0.06,0-0.13,0-0.19c0.32-0.13,0.64-0.26,0.96-0.39
					c0.19,0.19,0.39-0.53,0.58,0c-0.14,0.71,0.23,0.95,1.16,0.77c0.51,0.03,1.09-0.23,1.42,0.47
					C17.13,40.24,17.39,40.03,17.57,39.98z"/>
				<path class="st0" d="M12.93,39.2c0,0.06,0,0.13,0,0.19c-0.1,0.67-0.76,0.79-1.16,1.16c-0.63-0.19-1.15-0.93-1.93-0.39
					c-0.39-0.2-0.77,0.08-1.15,0.01c0.2-0.17,0.4-0.33,0.64-0.52C9.18,39.61,9.09,39.57,9,39.56c-0.55-0.1-1.33,0.07-1.01-0.98
					c0.05-0.16-0.31-0.13-0.49-0.16c0.4-0.28,0.64-0.27,0.82,0.28c0.15,0.46,0.46,0.65,0.87,0.11c0.44-0.57,0.98-0.9,1.61-0.18
					c0.51,0.44,1.12,0.44,1.74,0.38C12.63,39.17,12.77,39.2,12.93,39.2z M10.45,39.35c0.22,0.29,0.43,0.47,0.85,0.34
					C11.07,39.35,10.89,39.1,10.45,39.35z"/>
				<path class="st0" d="M14.48,38.81c-0.19-0.54-0.39,0.19-0.58,0c-0.51-0.9,0.52-0.6,0.76-0.85c0.48-0.48,1.14-1.31,1.95-0.31
					c-0.01,0.06-0.01,0.13-0.01,0.19c-0.27,0.25-0.71,0.08-0.96,0.39c-0.02,0.16-0.13,0.41-0.25,0.31
					C14.9,38.1,14.78,38.73,14.48,38.81z"/>
				<path class="st0" d="M7.52,47.51c0.16,0.01,0.31,0.04,0.4,0.2c0,0.25,0,0.5,0,0.76l-0.01,0.01C7.36,48.33,7.02,48.08,7.52,47.51
					z"/>
				<path class="st0" d="M6.37,48c0.33,0.07,0.55,0.1,0.64,0.4C6.69,48.53,6.52,48.4,6.37,48z"/>
				<path class="st0" d="M8.09,49.45c-0.31-0.28-0.14-0.64-0.19-0.97l0.01-0.01c0.24,0.02,0.38,0.14,0.38,0.39
					C8.06,49,8.11,49.24,8.09,49.45L8.09,49.45z"/>
				<path class="st0" d="M16.22,53.12c-0.2,0.07-0.38,0.23-0.6,0c-0.28-0.31-0.49-0.21-0.57,0.19c-0.06,0.01-0.12,0.01-0.18,0.02
					c-0.23,0.19-0.43,0.46-0.79,0.38v0.01c0.06-0.47-0.77-0.42-0.57-0.97c0.29-0.1,0.82,0.2,0.84-0.25c0.03-0.45-0.42-0.1-0.65-0.15
					l0,0c0.08-0.19,0.2-0.32,0.39-0.4c0.13,0,0.26,0.01,0.38,0.01c0.6,0.42,1.29-0.23,1.89,0.16c0.04-0.07,0.14-0.18,0.12-0.21
					c-0.47-0.71,0.28-0.54,0.51-0.77c0.18-0.19,0.86,0.13,0.57-0.54c0.35-0.39,0.37,0.18,0.58,0.2c-0.13,0.19-0.26,0.39-0.4,0.58
					l0,0c-0.13,0.13-0.25,0.26-0.38,0.39c-0.47,0.17-0.53,0.76-0.97,0.96C16.24,52.81,16.23,52.96,16.22,53.12z"/>
				<path class="st0" d="M18.93,47.52c0.28-0.05,0.29-0.53,0.65-0.42c0.4,0.12,0.29,0.49,0.33,0.79c-0.13,0.23-0.18,0.44-0.07,0.72
					c0.15,0.35-0.08,0.36-0.34,0.27c-0.21,0.01-0.43-0.04-0.56,0.19c-0.06,0.19-0.13,0.38-0.2,0.58c-0.31,0.19-0.06,0.39-0.01,0.58
					c-0.64-0.01-0.98-0.27-0.77-0.97c0.78,0.07,0.41-0.44,0.39-0.77C18.97,48.42,18.93,47.96,18.93,47.52z"/>
				<path class="st0" d="M16.41,52.73c0.44-0.21,0.5-0.79,0.97-0.96c0.23-0.07,0.48,0.31,0.66,0.03c0.13-0.18-0.23-0.25-0.28-0.42
					l0,0c0.66-0.16,0.53,0.66,0.97,0.77c-0.27,0.85-1.1,0.98-1.74,1.34C16.69,53.32,17.16,52.56,16.41,52.73z"/>
				<path class="st0" d="M17.95,49.25c-0.21,0.7,0.13,0.96,0.77,0.97c0.15,0.29,0.51,0.25,0.82,0.42c-0.51,0.43-0.98,0.02-1.4,0.16
					c-0.21-0.02-0.24-0.59-0.58-0.2c-0.32,0.35-0.43,0.03-0.57-0.18l0,0c0.56-0.27,0.13-0.52-0.01-0.78
					c0.13-0.26,0.05-0.72,0.58-0.58C17.66,49.22,17.8,49.25,17.95,49.25C17.96,49.25,17.95,49.25,17.95,49.25z"/>
				<path class="st0" d="M18.93,49.06c0.13-0.23,0.36-0.18,0.56-0.19c0.08,0.51,0.47,0.35,0.78,0.38c0.03,0.37,0.16,0.61,0.58,0.39
					c0.16,0.09,0.19,0.23,0.18,0.4c-0.44,0.03-0.91,0.15-1.15-0.4C19.57,49.45,19.25,49.26,18.93,49.06z"/>
				<path class="st0" d="M18.93,49.06c0.32,0.19,0.64,0.39,0.96,0.58l0,0c-0.22,0.21-0.42,0.46-0.78,0.39
					c-0.18-0.07-0.31-0.21-0.38-0.39C18.8,49.45,18.87,49.26,18.93,49.06z"/>
				<path class="st0" d="M19.12,50.03c0.36,0.08,0.56-0.18,0.78-0.39C19.89,50.29,19.62,50.39,19.12,50.03z"/>
				<path class="st0" d="M14.09,50.99c-0.06-0.06-0.13-0.12-0.19-0.19c-0.01-0.18,0.07-0.45-0.15-0.49
					c-0.34-0.07-0.47,0.25-0.61,0.48l0,0c-0.16,0-0.31-0.04-0.39-0.19c0.06-0.06,0.13-0.13,0.2-0.19c0.28-0.2,0.16-0.51,0.19-0.77
					c0.16-0.08,0.19-0.23,0.2-0.39c0.33-0.33,0.27-0.9,0.68-1.18c0.29,0.34,0.03,0.59-0.07,0.88c-0.11,0.3,0.1,0.47,0.36,0.59
					c0.19,0.08,0.36,0.12,0.54-0.02c0.13-0.1,0.15-0.24,0.03-0.32c-0.86-0.58,0.06-0.88,0.19-1.3c0.39-0.01,0.78-0.01,1.16-0.01l0,0
					c0,0.13,0,0.26,0,0.39c-0.22,0-0.44,0.01-0.66,0c-0.62-0.02-0.19,0.23-0.1,0.39c-0.11,0.63,0.46,0.57,0.77,0.77
					c-0.15,0.48,0.06,0.91,0.19,1.35c-0.06,0.07-0.12,0.13-0.18,0.2c-0.21-0.02-0.4-0.1-0.44-0.31c-0.2-1.33-0.62-0.54-1.05-0.13
					c-0.55,0.54,0.56,0.41,0.31,0.81l0,0C14.66,51.44,14.34,51.32,14.09,50.99z"/>
				<path class="st0" d="M16.23,51c0.06-0.06,0.13-0.13,0.18-0.2c0.13-0.13,0.26-0.25,0.39-0.38c0.07,0,0.13,0,0.2,0
					c0.14,0.21,0.25,0.53,0.57,0.18c0.29,0.67-0.39,0.35-0.57,0.54c-0.23,0.23-0.98,0.06-0.51,0.77c0.02,0.03-0.08,0.14-0.12,0.21
					c-0.6-0.39-1.29,0.26-1.89-0.16c0.33-0.28,0.78-0.24,1.16-0.39C16.02,51.56,16.07,51.23,16.23,51z"/>
				<path class="st0" d="M16.23,51c-0.16,0.23-0.2,0.57-0.58,0.57c-0.05-0.51-0.39-0.12-0.59-0.19c0.25-0.4-0.86-0.27-0.31-0.81
					c0.42-0.41,0.84-1.2,1.05,0.13C15.83,50.9,16.02,50.98,16.23,51z"/>
				<path class="st0" d="M11.58,51.96c0.45-0.47-0.14-1.06,0.19-1.55c0.08-0.15,0.22-0.19,0.38-0.2c-0.33,0.85,0.17,0.87,0.78,0.78
					c-0.01,0.28-0.21,0.34-0.43,0.43c-0.31,0.13-0.56,0.33-0.35,0.73C11.95,52.14,11.72,52.18,11.58,51.96z"/>
				<path class="st0" d="M12.93,50.99c-0.61,0.09-1.11,0.06-0.78-0.78l0,0c0.28,0.01,0.48,0.14,0.59,0.39
					c0.08,0.16,0.23,0.19,0.39,0.19C13.06,50.87,13,50.93,12.93,50.99z"/>
				<path class="st0" d="M14.1,51.95c-0.19,0.07-0.31,0.21-0.39,0.4c-0.24-0.12-0.48-0.29-0.25-0.57
					C13.73,51.44,13.93,51.69,14.1,51.95z"/>
				<path class="st0" d="M13.71,52.35c0.23,0.05,0.69-0.3,0.65,0.15c-0.02,0.45-0.55,0.15-0.84,0.25
					C13.58,52.6,13.64,52.47,13.71,52.35z"/>
				<path class="st0" d="M13.13,50.8c0.15-0.23,0.27-0.55,0.61-0.48c0.22,0.04,0.14,0.31,0.15,0.49
					C13.64,50.81,13.38,50.8,13.13,50.8z"/>
				<path class="st0" d="M14.09,50.99c0.25,0.32,0.57,0.44,0.97,0.39C14.58,51.64,14.14,51.81,14.09,50.99z"/>
				<path class="st0" d="M12.86,51.89c0.01,0.15-0.08,0.24-0.22,0.23c-0.08,0-0.19-0.07-0.21-0.14c-0.05-0.14,0.03-0.25,0.16-0.28
					C12.74,51.67,12.83,51.76,12.86,51.89z"/>
				<path class="st0" d="M12.74,53.31c-0.07-0.19-0.14-0.38-0.21-0.58C12.68,52.91,13.27,52.91,12.74,53.31z"/>
				<path class="st0" d="M7.51,38.42c0.18,0.03,0.53,0,0.49,0.16c-0.32,1.05,0.46,0.88,1.01,0.98c0.09,0.01,0.18,0.05,0.33,0.09
					C9.1,39.84,8.9,40.01,8.7,40.17c-0.03,0.21,0.03,0.44-0.2,0.57c-0.3-0.36-1.02,0.1-1.16-0.59c0.54-1.19-0.27-1.01-0.97-0.96
					C6.55,39.11,6.69,39,6.75,38.8C6.89,38.48,7.18,38.41,7.51,38.42z"/>
				<path class="st0" d="M10.8,51.77c0.28,0.02,0.35-0.21,0.47-0.41c0.21,0.17,0.07,0.4,0.11,0.59
					C11.17,51.95,10.95,51.99,10.8,51.77z"/>
				<path class="st0" d="M11.19,49.45c-0.75,0.47-0.45-0.48-0.78-0.58c0-0.16-0.04-0.3-0.19-0.39c0-0.38,0.34-0.43,0.58-0.58
					c0.73,0.44,0.43-0.5,0.77-0.58c0.04,0.31-0.13,0.71,0.39,0.78c-0.06,0.45-0.13,0.91-0.19,1.36
					C11.58,49.45,11.39,49.45,11.19,49.45z"/>
				<path class="st0" d="M9.65,49.45c-0.23-0.12-0.4-0.12-0.4,0.21c-0.12-0.13-0.25-0.27-0.37-0.4c-0.27-0.65,0.23-0.54,0.57-0.59
					c0.24,0.13,0.49,0.23,0.78,0.2C10.03,49.06,9.84,49.25,9.65,49.45z"/>
				<path class="st0" d="M11.19,49.45c0.2,0,0.39,0,0.58,0c0.09,0.15,0.23,0.19,0.39,0.19c0,0.19-0.01,0.38-0.01,0.57l0,0
					c-0.16,0.01-0.3,0.04-0.38,0.2C11.22,50.31,11.21,49.87,11.19,49.45z"/>
				<path class="st0" d="M10.22,48.87c-0.28,0.03-0.53-0.07-0.78-0.2c-0.07-0.29-0.57-0.46-0.27-0.81c0.08-0.1,0.36,0.06,0.47,0.25
					c0.01,0.39,0.3,0.39,0.58,0.38c0.16,0.09,0.19,0.23,0.19,0.39h-0.09L10.22,48.87L10.22,48.87z"/>
				<path class="st0" d="M10.42,50.8c-0.07-0.06-0.13-0.13-0.2-0.19c0.03-0.26,0.14-0.43,0.44-0.35c0.13,0.04,0.24,0.13,0.22,0.27
					C10.83,50.76,10.62,50.78,10.42,50.8z"/>
				<path class="st0" d="M6.17,41.91c0.19-0.01,0.38-0.01,0.57-0.01c0.38-0.25,0.31-0.51,0.01-0.76c-0.31-0.26-0.36-0.52,0-0.77
					c0.23,0.6,0.97,0.47,1.34,0.89c0.11,0.12,0.31-0.15,0.4-0.31c0.06,0,0.13,0.01,0.19,0.01c0.04,0.42-0.31,0.53-0.55,0.62
					c0.17,0.51,1.07-0.16,0.94,0.73c-0.06,0-0.13,0-0.19,0.01c-0.41-0.04-0.8-0.04-0.59,0.57c-0.12,0.07-0.25,0.14-0.38,0.21
					c-0.3-0.21-0.6-0.42-0.82-0.58c-0.41,0.01-0.25,1.05-0.93,0.38c-0.15-0.09-0.19-0.24-0.19-0.39
					C5.99,42.28,5.95,42.05,6.17,41.91z"/>
				<path class="st0" d="M8.49,40.94c-0.1,0.17-0.3,0.43-0.4,0.31c-0.37-0.42-1.11-0.29-1.34-0.89c0.14-0.23,0.37-0.19,0.58-0.2
					c0.14,0.69,0.86,0.22,1.16,0.59C8.49,40.81,8.49,40.87,8.49,40.94z"/>
				<path class="st0" d="M6.17,42.88c0.68,0.67,0.52-0.37,0.93-0.38c0.22,0.16,0.52,0.37,0.82,0.58c0,0.06-0.01,0.12-0.01,0.19
					c-0.24,0.28,0.07,0.28,0.19,0.38c-0.07,0.46-0.13,0.91-0.2,1.36c-0.19-0.13-0.38-0.26-0.57-0.39l0,0
					c-0.13-0.19-0.26-0.38-0.39-0.57c0.04-0.09,0.09-0.17,0.11-0.26c0.04-0.16,0-0.24-0.19-0.19c-0.45,0.13-0.65-0.1-0.7-0.52
					C6.16,43.01,6.17,42.94,6.17,42.88z"/>
				<path class="st0" d="M8.29,47.32c-0.24-0.69-0.8-0.63-1.36-0.59c0.34-0.33,0.95-0.25,1.18-0.76c0.06,0,0.12,0,0.18,0
					c0.01,0.24,0.14,0.38,0.39,0.38l0,0c0.54,0.34,0.98,0.35,1.16-0.38c0.19,0,0.38,0,0.57,0c0,0.19,0,0.38,0,0.57
					c0,0.06,0,0.12,0,0.18c-0.32-0.17-0.61-0.22-0.77,0.21c-0.12,0.36-0.15,0.39-0.25,0.28C8.97,46.72,8.63,46.96,8.29,47.32z"/>
				<path class="st0" d="M7.9,45c0.06-0.45,0.13-0.9,0.2-1.36c0.44-0.21,1.26-0.04,0.97-0.97c0.13,0,0.25,0,0.38,0.01
					c0.06,0.19,0.13,0.39,0.19,0.58c-0.13,0.2-0.26,0.38-0.39,0.58c-0.82,0.27-0.94,0.56-0.52,1.24c0.18,0.29-0.07,0.38-0.26,0.5
					c-0.01-0.39-0.29-0.39-0.57-0.38C7.91,45.13,7.91,45.07,7.9,45z"/>
				<path class="st0" d="M6.16,43.07c0.05,0.42,0.25,0.65,0.7,0.52c0.18-0.05,0.23,0.03,0.19,0.19c-0.02,0.09-0.07,0.17-0.11,0.26
					c-0.01,0.15-0.03,0.3-0.19,0.36c-0.62-0.83-0.89-0.83-1.36,0.02c-0.07-0.08-0.13-0.15-0.2-0.23c0.25-0.44-0.05-0.5-0.38-0.54
					c-0.06-0.06-0.13-0.13-0.2-0.2C5.08,43.08,5.61,43.05,6.16,43.07z"/>
				<path class="st0" d="M7.91,45.19c0.28,0,0.56-0.01,0.57,0.38l0,0c-0.15,0.08-0.18,0.23-0.19,0.39c-0.06,0-0.12,0-0.18,0
					C8.24,45.66,7.84,45.49,7.91,45.19z"/>
				<path class="st0" d="M7.33,44.61C7.3,44.8,7.26,45,7,44.96c-0.06-0.01-0.17-0.14-0.15-0.17C6.93,44.55,7.15,44.64,7.33,44.61
					L7.33,44.61z"/>
				<path class="st0" d="M6.16,43.07c-0.55-0.02-1.08,0.01-1.54,0.38c-0.15-0.03-0.39-0.02-0.43-0.1c-0.14-0.3,0.16-0.23,0.31-0.29
					c0.49-0.19,0.98-0.38,1.48-0.57c0.01,0.16,0.04,0.3,0.19,0.39C6.17,42.94,6.16,43.01,6.16,43.07z"/>
				<path class="st0" d="M20.86,49.64c-0.43,0.22-0.55-0.02-0.58-0.39l0,0c0.2-0.06,0.39-0.13,0.58-0.2l0,0
					c0.06,0.13,0.13,0.26,0.19,0.39C20.98,49.51,20.92,49.58,20.86,49.64z"/>
				<path class="st0" d="M8.29,47.32c0.34-0.36,0.68-0.6,1.11-0.11c0.1,0.11,0.13,0.08,0.25-0.28c0.71,0.39,0.6,0.78,0,1.17
					c-0.11-0.18-0.39-0.35-0.47-0.25c-0.3,0.36,0.2,0.53,0.27,0.81c-0.34,0.05-0.84-0.06-0.57,0.59c-0.3,0.03-0.38-0.27-0.58-0.39
					c0-0.25-0.14-0.37-0.38-0.39c0-0.25,0-0.51,0-0.76C8.04,47.59,8.17,47.46,8.29,47.32z"/>
				<path class="st0" d="M20.08,47.9c0.08-0.34,0.17-0.67,0.25-1.01c0.31-0.12,0.57,0.75,0.9,0.04c0.19,0.06,0.39,0.13,0.58,0.19
					l0.01,0.01c-0.13,0.19-0.26,0.38-0.39,0.58c0.2,0.33,0.21,0.61-0.2,0.78c-0.06-0.01-0.12-0.01-0.18-0.01
					C21.23,47.43,20.71,47.58,20.08,47.9L20.08,47.9z"/>
				<path class="st0" d="M22.02,45.38c0-0.06,0-0.13,0-0.19c0-0.06,0-0.13,0-0.19v-0.01c0.25,0,0.51,0.01,0.77,0.01
					c-0.01,0.21,0.03,0.44-0.19,0.58C22.6,44.94,22.17,45.56,22.02,45.38z"/>
				<path class="st0" d="M21.05,46.55c0.32-0.13,0.64-0.26,0.96-0.4c-0.2,0.4-0.5,0.63-0.96,0.59
					C21.05,46.68,21.05,46.61,21.05,46.55z"/>
				<path class="st0" d="M22.6,48.86c-0.23,0.15-0.49,0.24-0.76,0.24c-0.01-0.17,0.02-0.33,0.18-0.42c0.34-0.31,0.16-0.71,0.18-1.06
					c0.02-0.27,0.05-0.44,0.37-0.29C22.66,47.83,23,48.34,22.6,48.86z"/>
				<path class="st0" d="M21.05,48.47c0.06,0,0.12,0,0.18,0.01c0.01,0.28-0.13,0.47-0.38,0.57l0,0c-0.11-0.17-0.29-0.3-0.48-0.23
					c-0.08,0.03-0.07,0.28-0.11,0.43l0,0c-0.31-0.03-0.7,0.13-0.78-0.38c0.26,0.1,0.49,0.09,0.34-0.27
					c-0.11-0.28-0.06-0.49,0.07-0.72c0.06,0.01,0.12,0.01,0.18,0.01v0.01C20.37,48.16,20.57,48.55,21.05,48.47z"/>
				<path class="st0" d="M21.44,47.71c0.13-0.19,0.26-0.39,0.39-0.58c0.16,0.08,0.19,0.23,0.19,0.38
					C21.83,47.58,21.63,47.64,21.44,47.71z"/>
				<path class="st0" d="M8.29,48.86c0.2,0.12,0.28,0.42,0.58,0.39c0.12,0.13,0.25,0.27,0.37,0.4c0.01,0.12,0.01,0.25,0.01,0.37
					c-0.52,0.07-0.85-0.24-1.16-0.57C8.11,49.24,8.06,49,8.29,48.86z"/>
				<path class="st0" d="M14.09,53.7c0.36,0.08,0.56-0.19,0.79-0.38c0.55,0.65,0.09,1-0.41,1.34c-0.14-0.08-0.66,0.21-0.34-0.33
					C14.26,54.1,14.06,53.91,14.09,53.7z"/>
				<path class="st0" d="M22.79,45c-0.26,0-0.51-0.01-0.77-0.01C22.3,44.65,22.51,44.65,22.79,45z"/>
				<path class="st0" d="M22.02,45c0,0.06,0,0.13,0,0.19c-0.2-0.06-0.39-0.13-0.59-0.19C21.63,44.4,21.82,45.06,22.02,45z"/>
				<path class="st0" d="M14.09,42.68c0.24,0.71-0.13,1.41,0,2.13c-0.35-0.11,0-0.64-0.48-0.72c-0.45-0.07-0.47-0.17-0.11-0.47
					c0.43-0.35,0.4-0.7,0.12-1.07c-0.36-0.49-0.6,0.04-0.89,0.13c-0.02-0.5-0.47-0.66-0.77-0.9c-0.14-0.11-0.41-0.31-0.67-0.01
					c-0.48,0.58-0.5,0.57-0.87-0.25c0.32,0.17,0.57,0.08,0.78-0.19c0.3-0.04,0.71,0.13,0.77-0.39l0,0c0.42-0.17,1.02-0.01,1.11-0.78
					c0.05-0.41,0.51-0.24,0.81-0.2l0,0C13.29,40.93,13.45,41.82,14.09,42.68z"/>
				<path class="st0" d="M14.28,45.38c0.66,0.22,1.11,0.97,1.93,0.78c-0.06,0.52-0.47,0.35-0.77,0.39
					c-0.26-0.13-0.52-0.25-0.78-0.39c-0.24-0.61-0.66-0.37-0.89-0.08c-0.24,0.29-0.45,0.51-0.84,0.46c-0.13-0.19-0.27-0.38-0.4-0.57
					c0.23-0.63,0.81-1.46-0.64-1.06c-0.27,0.07-0.28-0.16-0.31-0.35c-0.06-0.37-0.13-0.73-0.2-1.1c0.26,0,0.52,0,0.78,0
					c0.03,0.18,0.04,0.38,0.11,0.55C12.34,44.2,14.03,45.33,14.28,45.38z"/>
				<path class="st0" d="M14.28,45.38c-0.25-0.06-1.94-1.18-2.02-1.38c-0.07-0.17-0.08-0.37-0.11-0.55l0,0
					c0.19-0.26,0.39-0.52,0.58-0.78l0,0c0.29-0.08,0.52-0.62,0.89-0.13c0.28,0.38,0.31,0.73-0.12,1.07
					c-0.36,0.29-0.35,0.39,0.11,0.47c0.48,0.08,0.14,0.61,0.48,0.72C14.6,44.85,14.22,45.19,14.28,45.38z"/>
				<path class="st0" d="M14.09,42.68c-0.64-0.86-0.8-1.75-0.19-2.7c0.36,0.06,0.96-0.19,1.02,0.19c0.1,0.62-0.01,1.31-0.63,1.74
					c-0.22,0.13-0.02,0.26,0,0.39C14.28,42.45,14.25,42.6,14.09,42.68z"/>
				<path class="st0" d="M14.29,42.29c-0.02-0.13-0.22-0.26,0-0.39c0.86,0.19,1.53-0.44,2.32-0.58c0.1,0.7,0.76-0.04,0.97,0.39
					c-0.36,0.45-1.18,0.26-1.35,0.97c-0.06-0.01-0.13-0.01-0.19-0.01c-0.64,0.35-1.01-0.34-1.55-0.39
					C14.41,42.3,14.35,42.29,14.29,42.29z"/>
				<path class="st0" d="M14.48,42.3c0.54,0.04,0.91,0.74,1.55,0.39c-0.05,0.39,0.36,0.49,0.54,0.85c-1.15-0.04-0.61,0.8-0.76,1.35
					C15.51,43.92,14.24,43.51,14.48,42.3z"/>
				<path class="st0" d="M15.45,46.55c0.3-0.04,0.71,0.13,0.77-0.39c0.07-0.06,0.13-0.13,0.19-0.19c0.26,0,0.52,0,0.77,0l0,0
					c0.03,0.05,0.07,0.1,0.1,0.16c0.09,0.21,0.59,0.23,0.37,0.54c-0.27,0.4-0.35-0.1-0.54-0.18c-0.41-0.17-0.46,0.15-0.51,0.44
					c-0.5-0.18-0.59,0.51-1.15,0.51C15.57,47.11,15.84,46.78,15.45,46.55z"/>
				<path class="st0" d="M16.22,42.69c0.17-0.71,1-0.52,1.35-0.97c0.06-0.07,0.13-0.13,0.19-0.19c-0.13,0.29,0.69,0.67,0.03,0.79
					C17.26,42.4,16.98,43.72,16.22,42.69z"/>
				<path class="st0" d="M17.18,45.97c-0.26,0-0.52,0-0.77,0c0.4-0.22,0.34-0.79,0.78-0.97C17.15,45.32,16.91,45.65,17.18,45.97z"/>
				<path class="st0" d="M17.57,39.98c-0.18,0.05-0.44,0.26-0.51,0.08c-0.32-0.71-0.91-0.44-1.42-0.47
					c-0.15-0.18-0.31-0.35-0.54-0.63c0.49,0.07,0.76-0.25,1.12-0.33c0.02,0.27,0.12,0.46,0.43,0.54c0.5,0.12,0.99,0.17,1.5,0.03
					c-0.23,0.14-0.18,0.37-0.19,0.58C17.79,39.78,17.65,39.82,17.57,39.98z"/>
				<path class="st0" d="M17.95,39.78c0.01-0.21-0.04-0.44,0.19-0.58c0.13-0.19,0.26-0.39,0.4-0.58c0.13,0.39,0.13,0.78,0,1.16
					C18.34,40.26,18.15,40.18,17.95,39.78z"/>
				<path class="st0" d="M17,50.42c-0.07,0-0.13,0-0.2,0c0.06-0.48-0.1-0.82-0.58-0.97c-0.32-0.2-0.88-0.15-0.77-0.77
					c0.33,0.01,0.62-0.04,0.77-0.39c0.18-0.02,0.42-0.02,0.42-0.23c-0.01-0.26-0.28-0.11-0.42-0.16l0,0
					c0.19-0.25,0.47-0.35,0.77-0.38l0,0c0.38,0.7,0.77,0.44,1.16,0.01h0.09h0.1c0.2,0.74,0.39,0.01,0.59,0
					c-0.01,0.44,0.04,0.91-0.59,0.97l0,0c-0.22-0.24-0.51-0.49-0.79-0.31c-0.31,0.2,0.1,0.48,0.1,0.74c0,0.05-0.05,0.1-0.08,0.15
					c-0.52-0.15-0.45,0.32-0.58,0.58C17,49.9,17,50.16,17,50.42L17,50.42z"/>
				<path class="st0" d="M18.34,47.52h-0.1h-0.09c-0.39,0.15-0.77-0.01-1.16-0.01l0,0c0-0.28-0.13-0.47-0.39-0.58
					c0.05-0.29,0.1-0.61,0.51-0.44c0.18,0.08,0.27,0.58,0.54,0.18c0.21-0.32-0.29-0.34-0.37-0.54c-0.02-0.06-0.06-0.11-0.1-0.16
					c0.27,0.13,0.56-0.74,0.85,0.02c0.08,0.2,0.25,0.03,0.31-0.13c0.2-0.48,0.5-0.18,0.77-0.09C18.93,46.39,18.88,47.06,18.34,47.52
					z"/>
				<path class="st0" d="M18.54,38.62c-0.13,0.19-0.27,0.39-0.4,0.58c-0.51,0.13-1,0.09-1.5-0.03c-0.31-0.08-0.41-0.27-0.43-0.54
					c-0.19-0.13-0.38-0.26-0.58-0.39c0.25-0.31,0.69-0.14,0.96-0.39c0.4,0.14-0.53,0.56,0.18,0.71c0.58,0.12,0.51-0.1,0.49-0.51
					c-0.01-0.16,0.32,0.04,0.49,0l0,0c0.03,0.22-0.12,0.52,0.14,0.66c0.2,0.1,0.2-0.13,0.24-0.27
					C18.46,38.14,18.5,38.37,18.54,38.62z"/>
				<path class="st0" d="M18.15,38.42c-0.04,0.14-0.04,0.38-0.24,0.27c-0.26-0.13-0.11-0.44-0.14-0.66
					C17.9,38.17,18.02,38.3,18.15,38.42z"/>
				<path class="st0" d="M15.64,38.23c0.19,0.13,0.39,0.26,0.58,0.39c-0.37,0.08-0.64,0.4-1.12,0.33c0.24,0.28,0.39,0.45,0.54,0.63
					c-0.93,0.18-1.3-0.07-1.16-0.77c0.3-0.09,0.42-0.72,0.91-0.27C15.51,38.65,15.62,38.39,15.64,38.23z"/>
				<path class="st0" d="M13.89,39.97c-0.3-0.04-0.76-0.21-0.81,0.2c-0.09,0.76-0.69,0.6-1.11,0.78c-0.07-0.13-0.13-0.26-0.2-0.39
					c0.4-0.37,1.06-0.49,1.16-1.16C13.39,39.35,13.7,39.58,13.89,39.97z"/>
				<path class="st0" d="M11.77,40.55c0.07,0.13,0.13,0.26,0.2,0.39l0,0c-0.23,0.18-0.59,0.12-0.77,0.39
					c-0.21,0.28-0.46,0.35-0.78,0.19l0,0c-0.41-0.31-0.62,0-0.79,0.28c-0.17,0.26,0.08,0.62-0.17,0.88c-0.13,0-0.25,0-0.38,0
					c0.02-0.13,0.21-0.26,0-0.38c0.13-0.89-0.77-0.22-0.94-0.73c0.24-0.09,0.59-0.2,0.55-0.62c0.31,0.16,0.6,0.54,0.98,0.16
					c0.25-0.26,0.57-0.54,0.18-0.94C10.62,39.62,11.14,40.36,11.77,40.55z"/>
				<path class="st0" d="M9.84,40.17c0.39,0.4,0.07,0.68-0.18,0.94c-0.38,0.38-0.67,0-0.98-0.16c-0.06,0-0.13-0.01-0.19-0.01
					c0-0.06,0-0.13,0-0.19c0.23-0.13,0.18-0.36,0.2-0.57C9.07,40.24,9.45,39.97,9.84,40.17z"/>
				<path class="st0" d="M10.45,39.35c0.45-0.25,0.62,0,0.85,0.34C10.88,39.81,10.66,39.64,10.45,39.35z"/>
				<path class="st0" d="M17.76,51.38c0.06,0.17,0.41,0.23,0.28,0.42c-0.18,0.28-0.43-0.1-0.66-0.03
					C17.51,51.64,17.64,51.51,17.76,51.38z"/>
				<path class="st0" d="M18.34,48.48c0.02,0.33,0.4,0.84-0.39,0.77l0,0C17.99,48.95,18.09,48.68,18.34,48.48L18.34,48.48z"/>
				<path class="st0" d="M18.34,48.48c-0.25,0.19-0.36,0.46-0.38,0.77c-0.16,0-0.3-0.03-0.39-0.19c0.03-0.05,0.08-0.1,0.08-0.15
					c0-0.26-0.4-0.53-0.1-0.74C17.84,47.99,18.13,48.25,18.34,48.48z"/>
				<path class="st0" d="M17,50.42c0-0.26,0-0.52-0.01-0.78C17.12,49.9,17.56,50.15,17,50.42z"/>
				<path class="st0" d="M15.06,47.9c-0.13,0.42-1.05,0.72-0.19,1.3c0.13,0.08,0.1,0.22-0.03,0.32c-0.17,0.14-0.35,0.1-0.54,0.02
					c-0.26-0.12-0.47-0.29-0.36-0.59c0.1-0.28,0.35-0.54,0.07-0.88c-0.42,0.28-0.35,0.85-0.68,1.18c-0.07-0.06-0.13-0.13-0.2-0.2
					c-0.35-0.23-0.81-0.41-0.39-0.96c0.14-0.24,0.22-0.49,0.2-0.77c0.48-0.47,1.11-0.5,1.73-0.57c0,0.06,0,0.12,0,0.18
					c-0.08,0.08-0.25,0.2-0.23,0.24c0.13,0.29,0.41,0.09,0.62,0.15C15.12,47.51,14.83,47.71,15.06,47.9z"/>
				<path class="st0" d="M15.06,47.9c-0.22-0.2,0.07-0.39,0-0.59c-0.13-0.13-0.26-0.26-0.39-0.39c0-0.06,0-0.12,0-0.18
					c-0.07-0.23-0.48-0.2-0.41-0.51c0.01-0.05,0.27-0.05,0.41-0.08c0.26,0.13,0.52,0.26,0.78,0.39c0.39,0.23,0.13,0.57,0.01,0.9
					c0.56,0,0.65-0.69,1.15-0.51c0.26,0.11,0.39,0.3,0.39,0.58c-0.3,0.04-0.58,0.13-0.77,0.38C15.83,47.9,15.44,47.9,15.06,47.9z"/>
				<path class="st0" d="M13.12,49.06c0.07,0.07,0.13,0.13,0.2,0.2c-0.01,0.16-0.04,0.31-0.2,0.39c-0.14-0.02-0.37-0.22-0.31,0.16
					c0.04,0.2,0.08,0.41,0.12,0.61c-0.06,0.06-0.13,0.13-0.2,0.19c-0.1-0.26-0.3-0.39-0.58-0.4c0-0.19,0-0.38,0.01-0.57
					C12.36,49.25,12.72,49.12,13.12,49.06z"/>
				<path class="st0" d="M16.22,49.45c0.48,0.15,0.64,0.49,0.58,0.97c-0.13,0.13-0.26,0.26-0.39,0.38
					C16.28,50.36,16.07,49.93,16.22,49.45z"/>
				<path class="st0" d="M16.22,48.29c-0.14,0.35-0.44,0.4-0.77,0.39c-0.08-0.16-0.51-0.42,0.1-0.39
					C15.77,48.29,15.99,48.29,16.22,48.29z"/>
				<path class="st0" d="M12.93,50.41c-0.04-0.2-0.08-0.41-0.12-0.61c-0.07-0.38,0.17-0.18,0.31-0.16
					C13.1,49.9,13.21,50.21,12.93,50.41z"/>
				<path class="st0" d="M16.22,47.9c0.15,0.05,0.41-0.1,0.42,0.16c0,0.21-0.25,0.21-0.42,0.23C16.22,48.16,16.22,48.03,16.22,47.9z
					"/>
				<path class="st0" d="M9.65,48.1c0.61-0.39,0.71-0.78,0-1.17c0.16-0.42,0.44-0.38,0.77-0.21c0.45,0.01,0.9,0.01,1.35,0.02
					c-0.07,0.07-0.13,0.13-0.2,0.2c-0.62,0.02-0.9,0.31-0.76,0.95c-0.24,0.15-0.57,0.2-0.58,0.58C9.94,48.48,9.66,48.49,9.65,48.1z"
					/>
				<path class="st0" d="M13.12,49.06c-0.4,0.07-0.76,0.19-0.96,0.58c-0.16,0-0.3-0.04-0.39-0.19c0.06-0.45,0.13-0.91,0.19-1.36l0,0
					c0.26,0,0.52,0,0.77,0C12.31,48.64,12.78,48.82,13.12,49.06z"/>
				<path class="st0" d="M11.56,46.95c0.07-0.06,0.14-0.13,0.2-0.2c0.24,0.22,0.87,0.11,0.78,0.46c-0.07,0.26-0.13,0.76-0.58,0.88
					l0,0c-0.52-0.06-0.35-0.47-0.39-0.78C11.57,47.19,11.57,47.07,11.56,46.95z"/>
				<path class="st0" d="M11.56,46.95c0.01,0.13,0.01,0.25,0.02,0.37c-0.34,0.08-0.05,1.02-0.77,0.58
					C10.66,47.26,10.95,46.97,11.56,46.95z"/>
				<path class="st0" d="M9.07,42.3c0.21,0.13,0.02,0.26,0,0.38c0.28,0.93-0.53,0.76-0.97,0.97c-0.11-0.1-0.43-0.1-0.19-0.38
					c0.55,0.04,0.81-0.23,0.77-0.78c0.06-0.06,0.13-0.12,0.2-0.19C8.94,42.3,9,42.3,9.07,42.3z"/>
				<path class="st0" d="M8.68,42.49c0.03,0.55-0.22,0.81-0.77,0.78c0-0.06,0-0.13,0.01-0.19c0.13-0.07,0.25-0.14,0.38-0.21
					C8.42,42.74,8.55,42.62,8.68,42.49z"/>
				<path class="st0" d="M8.68,42.49c-0.13,0.13-0.26,0.26-0.39,0.38c-0.22-0.61,0.17-0.61,0.59-0.57
					C8.81,42.37,8.74,42.43,8.68,42.49z"/>
				<path class="st0" d="M11.38,43.46c0.07,0.37,0.14,0.73,0.2,1.1c0.03,0.19,0.05,0.42,0.31,0.35c1.46-0.39,0.87,0.44,0.64,1.06
					c-0.67-0.6-0.21,0.52-0.58,0.38c0.03-0.47-0.02-0.87-0.65-0.89c-0.07,0.32-0.04,0.61,0.07,0.9c-0.3,0.18-0.62,0.21-0.96,0.19
					c0-0.19,0-0.38,0-0.57c0.33-0.36,0-0.55-0.2-0.78c-0.06-0.06-0.13-0.13-0.19-0.19c-0.03-0.27,0.74-0.31,0.31-0.52
					c-0.77-0.4,0.34-0.27,0.08-0.44C10.69,43.76,10.88,43.34,11.38,43.46z M11.02,44.11c-0.17,0.01-0.2,0.14-0.19,0.27
					c0.01,0.17,0.12,0.32,0.28,0.34c0.21,0.03,0.27-0.13,0.23-0.31C11.31,44.25,11.21,44.13,11.02,44.11z"/>
				<path class="st0" d="M10.22,45.2c0.2,0.22,0.52,0.42,0.2,0.78c-0.2,0-0.38,0-0.57,0c-0.54-0.32-0.87-0.02-1.16,0.38l0,0
					c-0.14-0.24-0.22-0.49-0.2-0.77l0,0c0.18-0.12,0.44-0.2,0.26-0.5c-0.42-0.68-0.3-0.97,0.52-1.24c-1.02,0.82,0.16,1.17,0.42,1.64
					C9.89,45.86,10.06,45.35,10.22,45.2z"/>
				<path class="st0" d="M11.96,46.35c0.37,0.14-0.09-0.97,0.58-0.38c0.13,0.19,0.26,0.38,0.4,0.57c-0.19,0.26-0.02,0.52,0,0.78
					c0.02,0.28-0.06,0.53-0.2,0.77c-0.26,0-0.52,0-0.77,0c0.45-0.12,0.51-0.63,0.58-0.88c0.09-0.36-0.53-0.25-0.78-0.46
					c-0.45-0.01-0.9-0.02-1.35-0.02c0-0.06,0-0.12,0-0.18c0.34,0.03,0.66-0.01,0.96-0.19C11.58,46.66,11.77,46.41,11.96,46.35z"/>
				<path class="st0" d="M8.68,46.35c0.3-0.4,0.63-0.7,1.16-0.38C9.66,46.7,9.22,46.69,8.68,46.35z"/>
				<path class="st0" d="M8.48,45.58c-0.03,0.28,0.06,0.53,0.2,0.77c-0.25,0-0.38-0.14-0.39-0.38C8.3,45.81,8.33,45.66,8.48,45.58z"
					/>
				<path class="st0" d="M10.22,45.2c-0.16,0.15-0.33,0.66-0.54,0.28c-0.27-0.47-1.44-0.82-0.42-1.64c0.13-0.2,0.26-0.38,0.39-0.58
					c0.36,0.01,0.53-0.02,0.48-0.52c-0.04-0.37-0.35-0.96,0.29-1.22l0,0c0.38,0.81,0.39,0.83,0.87,0.25
					c0.26-0.31,0.53-0.1,0.67,0.01c0.31,0.24,0.76,0.4,0.77,0.9l0,0c-0.62-0.06-0.59,0.36-0.58,0.78l0,0c-0.26,0-0.52,0-0.78,0
					c-0.5-0.12-0.69,0.3-0.96,0.58c-0.38-0.03-0.77-0.02-0.88,0.45c-0.09,0.39,0.2,0.47,0.5,0.51C10.1,45.07,10.16,45.13,10.22,45.2
					z"/>
				<path class="st0" d="M10.42,41.52c-0.64,0.26-0.33,0.85-0.29,1.22c0.05,0.5-0.12,0.53-0.48,0.52c-0.06-0.19-0.13-0.38-0.19-0.58
					c0.25-0.26,0.01-0.62,0.17-0.88C9.8,41.53,10.01,41.21,10.42,41.52z"/>
				<path class="st0" d="M20.27,49.25c0.03-0.15,0.03-0.4,0.11-0.43c0.18-0.06,0.36,0.06,0.48,0.23
					C20.66,49.12,20.47,49.19,20.27,49.25z"/>
				<path class="st0" d="M21.05,48.47c-0.48,0.08-0.69-0.32-0.98-0.57C20.71,47.58,21.23,47.43,21.05,48.47z"/>
				<path class="st0" d="M11.19,41.33c0.19-0.27,0.54-0.21,0.77-0.39C11.9,41.46,11.5,41.29,11.19,41.33z"/>
				<path class="st0" d="M12.94,47.32c-0.02-0.26-0.19-0.51,0-0.78c0.39,0.04,0.6-0.17,0.84-0.46s0.65-0.53,0.89,0.08
					c-0.14,0.03-0.4,0.03-0.41,0.08c-0.07,0.31,0.34,0.27,0.41,0.51C14.05,46.82,13.42,46.85,12.94,47.32z"/>
				<path class="st0" d="M12.16,43.46c-0.02-0.42-0.04-0.84,0.58-0.78C12.55,42.94,12.35,43.2,12.16,43.46z"/>
				<path class="st0" d="M16.99,47.51c0.39,0,0.77,0.15,1.16,0.01C17.76,47.96,17.37,48.21,16.99,47.51z"/>
				<path class="st0" d="M14.67,46.93c0.13,0.13,0.26,0.26,0.39,0.39c-0.21-0.06-0.49,0.14-0.62-0.15
					C14.42,47.13,14.59,47.01,14.67,46.93z"/>
				<path class="st0" d="M11.96,46.35c-0.19,0.06-0.38,0.31-0.58,0.01c-0.11-0.29-0.14-0.58-0.07-0.9
					C11.94,45.48,11.99,45.88,11.96,46.35z"/>
				<path class="st0" d="M10.03,45c-0.3-0.04-0.58-0.12-0.5-0.51c0.11-0.48,0.5-0.48,0.89-0.46c0.26,0.18-0.85,0.04-0.08,0.44
					C10.77,44.7,10.01,44.74,10.03,45z"/>
				<path class="st0" d="M11.02,44.11c0.18,0.02,0.28,0.14,0.32,0.3c0.04,0.18-0.02,0.34-0.23,0.31c-0.16-0.02-0.27-0.17-0.28-0.34
					C10.83,44.25,10.85,44.12,11.02,44.11z"/>
			</g>
		</g>
		<g>
			<path class="st1" d="M20.35,57.9l-0.06-0.46l-0.44,0.13c-2.58,0.77-3.11,1.09-3.31,1.33c-0.21,0.24-0.39,0.81-0.39,3.25
				c0,3.38,0.45,6.48,1.34,9.23c0.85,2.59,1.62,3.75,2.48,3.75c0.23,0,0.5-0.08,0.84-0.25c0.28-0.14,0.45-0.17,0.54-0.17h0.25
				l0.11-0.22c0.16-0.32,0.33-0.65,0.53-1c0.12-0.24,0.17-0.51,0.17-0.85v-0.03l-0.01-0.03L20.35,57.9z"/>
			<path class="st1" d="M97.08,70.26h-0.13l-0.11,0.07c-0.95,0.69-1.73,1.12-2.3,1.29c-0.58,0.17-1.2,0.25-1.83,0.25
				c-0.84,0-1.48-0.27-1.94-0.84c-0.47-0.58-0.71-1.54-0.72-2.86c0.03-0.19,0.27-1.26,0.71-3.18c0.21-0.9,0.31-1.72,0.31-2.42
				c0-1.3-0.36-2.32-1.07-3.04c-0.88-0.87-2.26-1.31-4.12-1.31c-1.1,0-2.32,0.17-3.63,0.52c-1.06,0.28-2.05,0.7-2.96,1.24
				c0.08-2.47,0.53-6.75,1.33-12.75c0.89-6.66,1.54-10.76,1.93-12.17L82.57,35v-0.05v-3.29v-0.7l-0.61,0.36
				c-0.58,0.34-1.51,1.5-2.88,7.5c-0.64,2.78-1.26,6.34-1.86,10.58c-0.36,2.59-0.95,6.31-1.79,11.37c-0.47,3-0.86,5.23-1.14,6.64
				l-0.01,0.04v0.04c0,1.77-0.12,3.54-0.36,5.28c-0.23,1.73-0.52,3.22-0.83,4.44l-0.13,0.5h0.52h2.04h0.31l0.07-0.3
				c0.25-0.94,0.72-3.91,1.45-9.06c0.69-4.9,3.29-7.29,7.93-7.29c0.97,0,1.66,0.25,2.01,0.73c0.39,0.53,0.58,1.3,0.58,2.28
				c0,0.45-0.14,1.81-0.42,4.02c-0.12,0.97-0.18,1.79-0.18,2.44c0,1.44,0.32,2.59,0.96,3.39c0.65,0.84,1.82,1.26,3.46,1.26
				c1.37,0,2.68-0.3,3.89-0.88c1.51-0.75,2.69-1.92,3.53-3.46l0.32-0.59h-0.68L97.08,70.26L97.08,70.26z"/>
			<path class="st1" d="M121.82,67.14h-0.35l-0.04,0.35c-0.18,1.4-0.64,2.41-1.35,2.97c-1,0.82-2.79,1.23-5.32,1.23
				c-3.82,0-6.95-1.27-9.29-3.76c-1.84-1.95-2.77-3.9-2.77-5.78c0-0.05,0.02-0.19,0.21-0.44c4.75-0.01,7.64-0.29,8.85-0.88
				c1.7-0.83,2.56-2.92,2.56-6.21v-1.56c0-0.96-0.25-1.66-0.73-2.1c-0.63-0.6-1.7-0.89-3.25-0.89c-3.09,0-5.63,1.08-7.57,3.19
				c-1.93,2.11-2.91,4.74-2.91,7.84c0,3.9,1.36,7.28,4.06,10.07s6.06,4.21,9.99,4.21c2.85,0,4.81-0.33,5.96-1.02
				c1.73-1.06,2.94-3.32,3.6-6.74l0.09-0.47h-0.48C123.08,67.14,121.82,67.14,121.82,67.14z M106.23,55.39c1.35-1.33,2.52-2,3.49-2
				s1.17,0.11,1.19,0.12l0,0c-0.01,0,0.09,0.21,0.09,1.11c0,0.21-0.08,0.64-0.44,1.48c-0.26,0.58-0.38,1.08-0.38,1.51
				c-2.46,0.02-4.45,0.12-5.94,0.31C104.66,57.15,105.34,56.3,106.23,55.39z"/>
			<path class="st1" d="M146.44,67.14h-0.35l-0.04,0.35c-0.19,1.4-0.64,2.41-1.36,2.97c-1,0.82-2.79,1.23-5.32,1.23
				c-3.82,0-6.95-1.27-9.3-3.76c-1.84-1.95-2.77-3.9-2.77-5.78c0-0.05,0.02-0.19,0.21-0.44c4.74-0.01,7.64-0.29,8.85-0.88
				c1.7-0.83,2.56-2.92,2.56-6.21v-1.56c0-0.96-0.25-1.66-0.72-2.1c-0.64-0.6-1.7-0.89-3.25-0.89c-3.09,0-5.63,1.08-7.57,3.19
				c-1.93,2.11-2.91,4.74-2.91,7.84c0,3.9,1.36,7.28,4.06,10.07s6.06,4.21,10,4.21c2.85,0,4.8-0.33,5.95-1.02
				c1.74-1.06,2.95-3.32,3.6-6.74l0.09-0.47h-0.48C147.7,67.14,146.44,67.14,146.44,67.14z M130.86,55.39c1.34-1.33,2.52-2,3.49-2
				s1.17,0.11,1.19,0.12l0,0c-0.01,0,0.09,0.21,0.09,1.11c0,0.21-0.08,0.64-0.45,1.48c-0.26,0.58-0.38,1.08-0.38,1.51
				c-2.46,0.02-4.45,0.12-5.93,0.31C129.29,57.15,129.95,56.3,130.86,55.39z"/>
			<path class="st1" d="M165.92,57.48c-1.18-0.61-2.31-1.05-3.35-1.32c-1.05-0.26-2.14-0.4-3.25-0.4c-2.43,0-4.7,0.71-6.76,2.1
				c-1.71,1.17-2.77,2.47-3.15,3.88c-0.21,0.92-0.32,1.72-0.32,2.38c0,2.75,1.18,5.63,3.5,8.57c2.54,3.19,3.36,3.63,3.85,3.63h0.4
				v-0.4c0-0.41-0.19-1.62-1.81-7.41c-0.55-2.08-1.16-4.2-1.8-6.29c-0.02-0.13-0.04-0.4-0.04-0.78c0-1.03,0.37-1.68,1.13-1.99
				c0.87-0.36,2.15-0.54,3.8-0.54h1.71h1.71c1.11,0,1.97-0.04,2.63-0.14c0.69-0.09,1.29-0.29,1.77-0.57l0.63-0.36L165.92,57.48z"/>
			<path class="st1" d="M182.42,54.64l0.36-0.04v-0.36c0-1.06-0.04-1.36-0.07-1.49c-0.05-0.2-0.19-0.62-0.44-1.28l-0.12-0.32
				l-0.34,0.07c-1.65,0.33-3.58,1.29-5.75,2.85c-2.27,1.63-3.37,2.97-3.37,4.07c0,0.49,0.32,1.42,2.85,4.34
				c1.77,2.05,2.74,3.85,2.9,5.35c0,4.4-2.14,8.18-6.36,11.2c-5.54,3.97-5.73,4.16-5.8,4.24l-0.2,0.2l0.12,0.25l0.42,0.9l0.1,0.23
				h0.26c3.35,0,6.28-1.02,8.7-3.03c2.16-1.79,3.93-4.41,5.27-7.77c1.23-3.15,1.82-5.2,1.82-6.26c0-1.27-0.87-2.92-2.67-5.05
				c-1.59-1.88-2.88-3.53-3.84-4.92c1.53-1.17,2.83-2.03,3.89-2.54C180.87,54.93,181.63,54.72,182.42,54.64z"/>
			<path class="st1" d="M71.55,65.56l-0.24-0.11l-0.19,0.18c-0.11,0.11-0.23,0.21-0.35,0.31l-0.2,0.17
				c-0.68,0.66-1.33,1.36-1.96,2.03c-1.83,1.96-3.72,3.98-6.22,4.96l-0.08,0.03l-0.06,0.06c-0.6,0.23-1.07,0.38-1.56,0.47
				c-1.07,0.22-2.11,0.34-3.07,0.44c-0.95,0-1.94,0.01-2.93,0.01c-6.22,0-11.42-0.31-16.54-1.81c-0.18-0.05-0.3-0.15-0.36-0.31
				l-0.05-0.14l-0.14-0.07c-1.14-0.6-2.15-1.26-2.98-1.97c-3.09-2.58-4.65-6.11-4.65-10.48c0-6.2,1.12-13.02,3.34-20.24
				c1.74-5.7,4.03-11.31,6.8-16.65c2.21-4.26,4.04-7.21,5.46-8.78c1.9-2.15,3.5-3.7,4.76-4.62c0.97-0.14,2.01-0.33,3.11-0.53
				c0.43-0.08,0.87-0.16,1.3-0.24h0.1h0.19c0.71,0,1.43,0.05,2.26,0.15c0.62,0.31,1.3,0.46,1.96,0.61c0.77,0.17,1.49,0.34,2.08,0.71
				c0.36,0.23,0.67,0.67,0.97,1.09c0.36,0.5,0.74,1.03,1.26,1.3c0.68,0.35,1.25,0.52,1.77,0.52c0.31,0,0.59-0.06,0.86-0.17
				c0.25-0.1,0.46-0.25,0.63-0.43c0.12-0.03,0.24-0.06,0.35-0.1l0.11-0.04l0.07-0.08c0.55-0.69,1.11-1.37,1.64-1.99l0.19-0.22
				l-0.16-0.25c-1.26-1.97-3.12-3.14-5.66-3.59c-0.05-0.03-0.11-0.06-0.16-0.09c-0.04-0.02-0.09-0.05-0.13-0.08l-0.08-0.05
				L62.9,5.55c-1.2-0.13-2.47-0.32-3.89-0.58l-0.05-0.01L58.9,4.97c-0.76,0.07-1.48,0.1-2.15,0.1c-1.03,0-1.98-0.08-2.83-0.24
				l-0.04-0.01l-0.05,0.01c-2.96,0.23-5.24,1.11-6.77,2.62c-0.16,0.16-0.26,0.36-0.3,0.58c-0.21,0.14-0.4,0.28-0.58,0.41l-0.03,0.03
				L46.12,8.5c-1.81,2.04-3.31,4.03-4.9,6.13c-0.55,0.74-1.11,1.47-1.69,2.22c-0.55,0.71-0.95,1.57-1.34,2.4
				c-0.23,0.49-0.45,0.96-0.69,1.39c-0.56,1-1.06,2.04-1.53,3.06c-0.54,1.15-1.09,2.33-1.75,3.43c-1.07,1.8-2.58,4.5-3.27,7.14
				c-0.68,1.23-0.81,1.68-0.82,1.93c-0.08,0.49-0.16,0.98-0.23,1.47l-0.14,0.9c-0.98,3.16-1.71,6.36-2.23,8.8
				C27.2,48.94,27,50.79,27,52.45c0,1.03-0.08,2.04-0.17,3.03c-0.12,1.46-0.25,2.97-0.11,4.53c-0.08,2.42,0.13,4.32,0.69,6.01
				c0.73,2.24,1.73,3.87,2.97,4.87c0.04,0.05,0.06,0.08,0.08,0.1c2.16,2.57,5.5,4.39,9.92,5.4c3.45,0.8,8.2,1.21,14.11,1.21
				c5.36,0,9.39-1.35,11.97-4.01c0.18-0.18,0.98-1.12,5.77-7.1l0.24-0.3l-0.29-0.25C72,65.79,71.81,65.67,71.55,65.56z"/>
		</g>
		<g>
			<path class="st1" d="M117.03,29.15l0.97,0.62c-0.04,0.08-0.17,0.17-0.29,0.18c-0.99,1.33-2.35,2.4-3.95,3.25
				c2.3,0.8,5.02,1.3,7.88,1.52c-0.29,0.31-0.61,0.86-0.8,1.24c-3.12-0.31-6.11-0.99-8.58-2.06c-2.53,1.05-5.51,1.69-8.56,2.08
				c-0.12-0.33-0.48-0.89-0.72-1.17c2.75-0.29,5.49-0.78,7.81-1.6c-1.15-0.64-2.18-1.38-3-2.24c-1.15,0.78-2.41,1.46-3.62,1.98
				c-0.21-0.25-0.64-0.66-0.93-0.89c2.43-0.92,5.04-2.57,6.56-4.42c-0.9-0.15-1.15-0.54-1.15-1.48v-2.12l1.68,0.13
				c-0.02,0.15-0.12,0.25-0.39,0.27v1.73c0,0.41,0.15,0.49,1.05,0.49h3.23c0.68,0,0.82-0.16,0.88-1.46
				c0.27,0.18,0.78,0.33,1.13,0.41c-0.14,1.71-0.51,2.1-1.85,2.1h-3.95l0.99,0.39c-0.08,0.1-0.25,0.16-0.45,0.14
				c-0.29,0.33-0.6,0.66-0.94,0.99h6.77L117.03,29.15z M105.02,22.77v2.26h-1.31v-3.41h3.74c-0.25-0.7-0.83-1.62-1.38-2.3l0.55-0.23
				l-2.26,0.06c-0.02-0.31-0.17-0.8-0.29-1.07c5.18-0.16,11.56-0.57,14.92-1.27l1.05,1.05c-0.04,0.04-0.12,0.06-0.2,0.06
				c-0.06,0-0.12-0.02-0.2-0.04c-1.96,0.37-4.71,0.68-7.65,0.91c0.52,0.76,0.96,1.71,1.13,2.37l-1.24,0.45
				c-0.15-0.74-0.68-1.85-1.24-2.68l0.19-0.06c-1.15,0.08-2.32,0.14-3.46,0.19c0.6,0.72,1.15,1.6,1.36,2.26l-0.68,0.31h7.68
				c0.68-0.84,1.52-2.16,2-3.05l1.52,0.68c-0.06,0.1-0.21,0.17-0.43,0.17c-0.41,0.64-1.03,1.48-1.65,2.2h3.68v3.54h-1.38v-2.39
				h-8.17c1.05,0.48,2.27,1.13,2.9,1.67l-0.74,0.86c-0.68-0.58-2.02-1.36-3.13-1.85l0.62-0.68L105.02,22.77L105.02,22.77z
				 M107.67,24.46c-0.45,1.38-1.19,2.63-2.71,3.33l-0.95-0.84c1.34-0.56,2.16-1.66,2.55-2.88L107.67,24.46z M108.74,30.28v0.02
				c0.88,0.9,2.1,1.69,3.52,2.3c1.4-0.62,2.61-1.4,3.5-2.33L108.74,30.28L108.74,30.28z M119.54,27.67
				c-0.68-0.91-2.14-2.26-3.37-3.21l0.94-0.68c1.26,0.89,2.74,2.18,3.44,3.11L119.54,27.67z"/>
			<path class="st1" d="M132.07,22.63c1.3,0.49,2.92,1.38,3.73,2.06l-0.78,1.15c-0.8-0.7-2.39-1.63-3.7-2.18L132.07,22.63z
				 M131.85,34.81c1.01-1.64,2.45-4.44,3.5-6.83l1.09,0.82c-0.95,2.22-2.24,4.81-3.17,6.42c0.08,0.1,0.1,0.21,0.1,0.29
				s-0.02,0.17-0.07,0.23L131.85,34.81z M150.55,19.26h-4.91v3.09h4.01V35.8h-1.32v-0.89h-9.57v1.01h-1.27V22.34h3.46v-3.09h-4.22
				l-0.8,1.11c-0.76-0.74-2.32-1.73-3.64-2.34l0.78-1.01c1.21,0.51,2.72,1.4,3.54,2.09v-1.17h13.95L150.55,19.26L150.55,19.26z
				 M142.19,23.57c0,1.34,0,3.71-2.43,5.56c-0.18-0.25-0.64-0.64-0.88-0.78c2.18-1.63,2.18-3.46,2.18-4.78h-2.31v6.32h9.57v-3.66
				h-0.02c-0.14,1.42-0.45,1.79-1.27,1.79h-1.3c-1.07,0-1.35-0.33-1.35-1.54v-2.91C144.38,23.57,142.19,23.57,142.19,23.57z
				 M138.76,33.68h9.57v-2.57h-9.57L138.76,33.68L138.76,33.68z M144.38,22.34v-3.09h-2.18v3.09H144.38z M146.89,26.87
				c0.33,0,0.39-0.15,0.43-1.34c0.23,0.19,0.66,0.37,1.01,0.45v-2.41h-2.82v2.88c0,0.35,0.04,0.41,0.35,0.41
				C145.86,26.87,146.89,26.87,146.89,26.87z"/>
			<path class="st1" d="M170.3,18.66h8v2.94h-1.42v-1.79h-4.15c-0.06,0.04-0.14,0.06-0.27,0.08v2.06c0,0.39,0.13,0.43,0.78,0.43
				h2.37c0.48,0,0.58-0.08,0.64-0.76c0.29,0.17,0.78,0.31,1.15,0.37c-0.12,1.13-0.52,1.42-1.6,1.42h-2.68
				c-1.6,0-2.01-0.24-2.01-1.46v-2.14h-4.31v0.02l1.38,0.12c-0.02,0.13-0.15,0.23-0.39,0.27c-0.63,2.02-2.01,3.27-6.31,3.91
				c-0.13-0.31-0.44-0.8-0.68-1.05c3.83-0.48,5.13-1.42,5.6-3.27h-4.03v1.89h-1.38v-3.04h7.92v-1.85l1.81,0.1
				c-0.02,0.14-0.12,0.25-0.41,0.29L170.3,18.66L170.3,18.66z M177.71,28.87v5.62c0,1.44-0.7,1.46-3.42,1.46
				c-0.06-0.35-0.27-0.85-0.45-1.2c0.59,0.02,1.17,0.04,1.58,0.04c0.84,0,0.97-0.02,0.97-0.33v-4.49h-13.54v5.95h-1.3v-7.06h2.24
				v-4.4h11.72v4.4C175.52,28.87,177.71,28.87,177.71,28.87z M165.07,25.47v3.4h3.52v-2.26h5.62v-1.13L165.07,25.47L165.07,25.47z
				 M173.8,31.15v3.25h-7.12v0.76h-1.26v-4.01H173.8z M172.5,32.03h-5.82v1.46h5.82V32.03z M174.21,28.87v-1.4h-4.34v1.4H174.21z"/>
		</g>
	</g>
	<g>
		<path class="st2" d="M185.86,73.38c0-2.4,1.73-4.05,3.81-4.05c2.06,0,3.81,1.65,3.81,4.05c0,2.42-1.74,4.03-3.81,4.03
			C187.59,77.41,185.86,75.8,185.86,73.38z M192.78,73.38c0-1.97-1.39-3.43-3.11-3.43c-1.76,0-3.15,1.46-3.15,3.43
			c0,1.99,1.39,3.41,3.15,3.41C191.39,76.79,192.78,75.37,192.78,73.38z M188.23,71.17h1.48c0.81,0,1.57,0.34,1.57,1.35
			c0,0.51-0.34,1.01-0.81,1.14l1.01,1.78h-0.81l-0.81-1.56h-0.94v1.56h-0.71v-4.27H188.23z M189.52,73.3c0.62,0,1.01-0.21,1.01-0.75
			c0-0.45-0.22-0.77-0.96-0.77h-0.64v1.52H189.52z"/>
	</g>
</g>
</svg>
