<?xml version="1.0" encoding="utf-8"?>
<!-- Generator: Adobe Illustrator 22.1.0, SVG Export Plug-In . SVG Version: 6.00 Build 0)  -->
<svg version="1.1" id="圖層_1" xmlns="http://www.w3.org/2000/svg" xmlns:xlink="http://www.w3.org/1999/xlink" x="0px" y="0px"
	 viewBox="0 0 96 96" style="enable-background:new 0 0 96 96;" xml:space="preserve">
<style type="text/css">
	.st0{fill:#FFFFFF;}
</style>
<g id="surface1">
	<path class="st0" d="M84.3,71.2c3.5-3.5,3.5-9.3,0-12.7l-25-25l2.9,0.1l1.1-0.1c4.9,0,8.9-4,8.9-8.9s-4-8.9-8.9-8.9l-0.1-0.1
		l-34.6,0.2l-0.2,0.1l-0.2-0.1c-4.9,0.7-10.1,2.9-14.2,7l-3.7,3.7c-9.6,9.6-9.6,25.2,0,34.8l16.5,16.5c3.5,3.5,9.3,3.5,12.7,0
		c0.9-0.9,1.5-2.1,2-3.1c3.5,2.1,8,1.6,11-1.3c1.6-1.6,2.5-3.7,2.6-5.9c2.1-0.1,4.2-1,5.9-2.6c0.8-0.8,1.3-1.6,1.7-2.5l8.9,8.9
		C75,74.7,80.8,74.7,84.3,71.2z M80.1,67c-1.2,1.2-3,1.2-4.2,0L52.5,43.7l-4.2,4.2l8.5,8.5c1.2,1.2,1.2,3,0,4.2
		c-1.2,1.2-3,1.2-4.2,0L44,52.1l-4.2,4.2l8.5,8.5c1.2,1.2,1.2,3,0,4.2c-1.2,1.2-3,1.2-4.2,0l-8.5-8.5l-4.5,4.5l4.2,4.2
		c1.2,1.2,1.2,3,0,4.2c-1.2,1.2-3,1.2-4.2,0L14.5,57c-7.4-7.4-7.4-19,0-26.3l3.7-3.7c3.1-3.1,6.9-4.7,10.7-5.2l34.2-0.2
		c1.8,0,2.9,1.1,2.9,2.9s-1.1,2.9-2.9,2.9l-18.3,0.1l35.3,35.3C81.3,64,81.3,65.8,80.1,67z"/>
</g>
</svg>
