<?xml version="1.0" encoding="utf-8"?>
<!-- Generator: Adobe Illustrator 24.2.3, SVG Export Plug-In . SVG Version: 6.00 Build 0)  -->
<svg version="1.1" id="栝鍣_1" xmlns="http://www.w3.org/2000/svg" xmlns:xlink="http://www.w3.org/1999/xlink" x="0px" y="0px"
	 viewBox="0 0 213.6 805.8" style="enable-background:new 0 0 213.6 805.8;" xml:space="preserve">
<style type="text/css">
	.st0{fill:#6E6E6E;}
</style>
<path class="st0" d="M162,222.3c-11.6-11.8-17.9-27.8-17.9-44.3V50.8c2.1-0.2,3.7-1.9,3.7-4v-18c0-2.1-1.6-3.8-3.7-4V16
	c0-4.2-3.4-7.6-7.6-7.6H78.3c-4.2,0-7.6,3.4-7.6,7.6v8.8c-2.1,0.2-3.7,1.9-3.7,4v18c0,2.1,1.6,3.8,3.7,4v127.1
	c0,16.5-6.3,32.5-17.9,44.3C34.4,241,8.5,277.1,8.5,331.1v449.6c0,10.6,8.6,19.1,19.1,19.1H187c10.6,0,19.1-8.6,19.1-19.1V331.2
	C206.3,277.2,180.3,241.1,162,222.3z"/>
</svg>
