<?xml version="1.0" encoding="utf-8"?>
<!-- Generator: Adobe Illustrator 24.2.3, SVG Export Plug-In . SVG Version: 6.00 Build 0)  -->
<svg version="1.1" id="_xE571_é£_x5F_1" xmlns="http://www.w3.org/2000/svg" xmlns:xlink="http://www.w3.org/1999/xlink" x="0px"
	 y="0px" viewBox="0 0 1421 817" style="enable-background:new 0 0 1421 817;" xml:space="preserve">
<style type="text/css">
	.st0{fill:url(#SVGID_1_);}
	.st1{fill:url(#SVGID_2_);}
	.st2{fill:url(#SVGID_3_);}
	.st3{fill:#FFFFFF;}
</style>
<g>
	<g>
		<linearGradient id="SVGID_1_" gradientUnits="userSpaceOnUse" x1="-31.668" y1="412" x2="1467.8434" y2="412">
			<stop  offset="0" style="stop-color:#FEA900"/>
			<stop  offset="0.4484" style="stop-color:#FF4930"/>
			<stop  offset="0.9997" style="stop-color:#FF01A8"/>
		</linearGradient>
		<path class="st0" d="M1394,375.2c-130.3-59.3-644.7-263.3-842.5-341.5c-33-13-68.3,6.8-76.2,39.3H257.8c-17.1,0-31,13.9-31,31
			c0,17.1,13.9,31,31,31h214.1c17.1,0,31,13.9,31,31c0,17.1-13.9,31-31,31H52c-17.1,0-31,13.9-31,31c0,17.1,13.9,31,31,31h430
			c17.1,0,31,13.9,31,31c0,17.1-13.9,31-31,31H353.8c-17.1,0-31,13.9-31,31c0,17.1,13.9,31,31,31h79.6c17.1,0,31,13.9,31,31
			c0,17.1-13.9,31-31,31H92.7c-17.1,0-31,13.9-31,31c0,17.1,13.9,31,31,31H482c17.1,0,31,13.9,31,31c0,17.1-13.9,31-31,31H378.7
			c-17.1,0-31,13.9-31,31c0,17.1,13.9,31,31,31h127.1c17.1,0,31,13.9,31,31c0,17.1-13.9,31-31,31h-170c-17.1,0-31,13.9-31,31
			c0,17.1,13.9,31,31,31h139c10.6,31.4,47.6,48.6,79.7,32.4L1394,401.5C1406,396,1406,380.7,1394,375.2z M1269.2,389.2l-697-5.6
			c-4,0.1-7.8,1.5-10.9,4l-3.4,7.1l-35.3,73.6c-1.8,1.7-4.6-0.5-3.3-2.6l36.4-142.9c4.3-7,12.1-11.1,20.3-10.5
			c-0.8,0.2,549.9,64.7,693.3,74.1C1271,386.5,1271,389.1,1269.2,389.2z"/>
		<g>
			<linearGradient id="SVGID_2_" gradientUnits="userSpaceOnUse" x1="-15.2392" y1="600.5432" x2="1467.0974" y2="600.5432">
				<stop  offset="0" style="stop-color:#FEA900"/>
				<stop  offset="0.4484" style="stop-color:#FF4930"/>
				<stop  offset="0.9997" style="stop-color:#FF01A8"/>
			</linearGradient>
			<path class="st1" d="M287,600.5c0,17.1-13.9,31-31,31H152.6c-17.1,0-31-13.9-31-31c0-17.1,13.9-31,31-31H256
				C273.1,569.5,287,583.4,287,600.5z"/>
		</g>
		<g>
			<linearGradient id="SVGID_3_" gradientUnits="userSpaceOnUse" x1="-15.2394" y1="352.2798" x2="1467.1002" y2="352.2798">
				<stop  offset="0" style="stop-color:#FEA900"/>
				<stop  offset="0.4484" style="stop-color:#FF4930"/>
				<stop  offset="0.9997" style="stop-color:#FF01A8"/>
			</linearGradient>
			<path class="st2" d="M200,352.3c0,17.1-13.9,31-31,31h-16.3c-17.1,0-31-13.9-31-31c0-17.1,13.9-31,31-31h16.3
				C186.1,321.2,200,335.1,200,352.3z"/>
		</g>
	</g>
	<g>
		<path class="st3" d="M1269.2,389.2l-697-5.6c-4,0.1-7.8,1.5-10.9,4l-3.4,7.1l-35.3,73.6c-1.8,1.7-4.6-0.5-3.3-2.6l36.4-142.9
			c4.3-7,12.1-11.1,20.3-10.5c-0.8,0.2,549.9,64.7,693.3,74.1C1271,386.5,1271,389.1,1269.2,389.2z"/>
	</g>
</g>
</svg>
